<?xml version="1.0" standalone="no"?>
<!DOCTYPE svg PUBLIC "-//W3C//DTD SVG 1.1//EN" "http://www.w3.org/Graphics/SVG/1.1/DTD/svg11.dtd" >
<svg xmlns="http://www.w3.org/2000/svg">
<metadata></metadata>
<defs>
<font id="pmiconfontregular" horiz-adv-x="1350" >
<font-face units-per-em="1792" ascent="1536" descent="-256" />
<missing-glyph horiz-adv-x="448" />
<glyph unicode="&#xd;" horiz-adv-x="597" />
<glyph unicode=" "  horiz-adv-x="448" />
<glyph unicode="&#x09;" horiz-adv-x="448" />
<glyph unicode="&#xa0;" horiz-adv-x="448" />
<glyph unicode="&#xa8;" horiz-adv-x="1792" />
<glyph unicode="&#xa9;" horiz-adv-x="1792" />
<glyph unicode="&#xae;" horiz-adv-x="1792" />
<glyph unicode="&#xb4;" horiz-adv-x="1792" />
<glyph unicode="&#xc6;" horiz-adv-x="1792" />
<glyph unicode="&#x2000;" horiz-adv-x="768" />
<glyph unicode="&#x2001;" horiz-adv-x="1536" />
<glyph unicode="&#x2002;" horiz-adv-x="768" />
<glyph unicode="&#x2003;" horiz-adv-x="1536" />
<glyph unicode="&#x2004;" horiz-adv-x="512" />
<glyph unicode="&#x2005;" horiz-adv-x="384" />
<glyph unicode="&#x2006;" horiz-adv-x="256" />
<glyph unicode="&#x2007;" horiz-adv-x="256" />
<glyph unicode="&#x2008;" horiz-adv-x="192" />
<glyph unicode="&#x2009;" horiz-adv-x="307" />
<glyph unicode="&#x200a;" horiz-adv-x="85" />
<glyph unicode="&#x202f;" horiz-adv-x="307" />
<glyph unicode="&#x205f;" horiz-adv-x="384" />
<glyph unicode="&#x2122;" horiz-adv-x="1792" />
<glyph unicode="&#x221e;" horiz-adv-x="1792" />
<glyph unicode="&#x2260;" horiz-adv-x="1792" />
<glyph unicode="&#x25fc;" horiz-adv-x="500" d="M0 0z" />
<glyph unicode="&#xe000;" horiz-adv-x="500" d="M0 0z" />
<glyph unicode="&#xf000;" horiz-adv-x="1110" d="M0 1155h1110l-99 -1122q-445 -134 -457 -128q-13 6 -455 125zM219 917l33 -399h469l-15 -171l-150 -48l-159 45l-6 105h-131l18 -210l274 -81l277 83l34 401h-487l-10 142h514l13 133h-674z" />
<glyph unicode="&#xf001;" horiz-adv-x="1339" d="M0 34l129 -129l383 383q129 -86 286 -86q218 0 375 154q158 155 162 373t-147 372t-369 154t-375 -154t-162 -372q-3 -175 98 -315zM465 731q0 144 101 246q102 101 245 101q144 0 246 -101q101 -102 101 -246q0 -143 -101 -245q-102 -102 -246 -102q-143 0 -245 102 q-101 102 -101 245z" />
<glyph unicode="&#xf003;" horiz-adv-x="1736" d="M0 -95v1130l866 -668l870 669l-1 -1131h-1735zM19 1155h1694l-847 -649z" />
<glyph unicode="&#xf004;" horiz-adv-x="1009" d="M0 -6q0 200 118 337q139 161 390 161q236 0 377 -163q124 -142 124 -335q0 -45 -5 -89h-999q-5 44 -5 89zM146 889q0 152 108 259q107 107 259 107q151 0 259 -107q107 -107 107 -259t-107 -259q-108 -107 -259 -107q-152 0 -259 107q-108 107 -108 259z" />
<glyph unicode="&#xf005;" horiz-adv-x="1279" d="M0 1254q1251 0 1279 1v-1301v-48q-1231 0 -1278 -1q0 1300 -1 1349zM74 1h121v119h-121v-119zM74 210l121 -1v119l-121 1v-119zM74 417h121v119h-121v-119zM74 628h121v118l-121 1v-119zM74 837h121v119h-121v-119zM74 1044l121 -1v119l-121 1v-119zM246 1v491 q0 -130 1 -491h782q1 15 1 534q-35 1 -784 1v-44q0 48 0 43v-66v-468zM246 631v491q0 -131 1 -491q45 -1 782 -1q1 15 1 535h-784v-43q0 48 0 42v-66v-467zM1091 1h120v119h-120v-119zM1091 210l120 -1v119l-120 1v-119zM1091 417h120v119h-120v-119zM1091 628h120v118 l-120 1v-119zM1091 837h120v119h-120v-119zM1091 1044l120 -1v119l-120 1v-119z" />
<glyph unicode="&#xf006;" horiz-adv-x="1745" d="M0 593l274 274l405 -404l792 792l274 -274l-1076 -1076z" />
<glyph unicode="&#xf007;" d="M0 179l1076 1076l274 -274l-1076 -1076zM0 981l274 274l1076 -1076l-274 -274z" />
<glyph unicode="&#xf008;" horiz-adv-x="1339" d="M0 34l129 -129l383 383q129 -86 286 -86q218 0 376 154q157 154 161 372q4 219 -146 373q-151 154 -370 154q-218 0 -375 -154t-162 -373q-3 -174 99 -314zM464 731q0 144 103 246q101 101 244 101q144 0 246 -101q101 -102 101 -246q0 -143 -101 -245 q-102 -102 -246 -102q-143 0 -244 102q-103 102 -103 245zM533 655h202v-202h142v202h201v142h-201v202h-142v-202h-202v-142z" />
<glyph unicode="&#xf009;" horiz-adv-x="1347" d="M0 29l130 -130l385 385q130 -86 288 -86q219 0 377 155t163 374q4 219 -148 374t-371 155t-377 -155t-163 -374q-3 -176 98 -316zM467 730q0 145 103 247q102 102 246 102q145 0 247 -102t102 -247t-102 -247t-247 -102q-144 0 -246 102q-103 102 -103 247zM535 653h549 v142h-549v-142z" />
<glyph unicode="&#xf010;" horiz-adv-x="1345" d="M0 581q0 279 198 476q197 198 476 198q281 0 478 -198q197 -197 197 -476q0 -281 -197 -478q-197 -198 -478 -198q-279 0 -476 198q-198 197 -198 478zM170 584q0 -211 149 -359q149 -149 359 -149q211 0 360 149q148 148 148 359t-148 359q-149 149 -360 149 q-210 0 -359 -149q-149 -148 -149 -359zM582 457v548h169v-380h247v-169z" />
<glyph unicode="&#xf011;" horiz-adv-x="1434" d="M0 -95v436h249v-194h950v194h235v-436h-1434zM210 751l503 504l505 -504h-289v-505h-409v505h-310z" />
<glyph unicode="&#xf012;" horiz-adv-x="1480" d="M0 -95v450h257v-200h980v200h243v-450h-1480zM217 734h298v521h422v-521h318l-518 -519z" />
<glyph unicode="&#xf013;" horiz-adv-x="698" d="M0 906q0 145 102 247t247 102t247 -102t102 -247t-102 -247t-247 -102t-247 102t-102 247zM101 -95v674q107 -98 252 -98t252 98v-658l-244 245z" />
<glyph unicode="&#xf014;" horiz-adv-x="1666" d="M0 119v548l105 105h29v-250h1299v250h126l107 -107v-546h-1666zM212 52h1147v-147h-1147v147zM212 596v659h599v-548h548v-111h-1147zM903 800v455l456 -455h-456zM1490 575q0 -22 15 -38q16 -16 38 -16t38 16q15 16 15 38t-15 37q-16 16 -38 16t-38 -16q-15 -15 -15 -37 z" />
<glyph unicode="&#xf015;" d="M0 581q0 278 198 476q94 94 214 145q126 53 264 53q278 0 476 -198q94 -93 145 -214q53 -126 53 -262q0 -280 -198 -478q-93 -94 -214 -145q-126 -53 -262 -53q-280 0 -478 198q-94 93 -145 214q-53 126 -53 264zM509 106h321l-44 534h-232zM512 935q0 -69 49 -118 q49 -48 118 -48t118 48q49 49 49 118t-49 118q-49 50 -118 50t-118 -50q-49 -49 -49 -118z" />
<glyph unicode="&#xf016;" d="M0 409v342h1350v-342h-1350zM504 -95v1350h342v-1350h-342z" />
<glyph unicode="&#xf017;" d="M0 409v342h1350v-342h-1350z" />
<glyph unicode="&#xf018;" horiz-adv-x="1347" d="M0 -95v883h1347v-883h-1347zM0 835v288h146v-127q0 -21 15 -36q15 -14 36 -14h109q21 0 36 14q15 15 15 36v127h619v-127q0 -21 15 -36q15 -14 36 -14h109q21 0 36 14q14 15 14 36v127h161v-288h-1347zM128 28h1108v664h-1108v-664zM199 1031v184q0 16 15 28t36 12h4 q20 0 35 -12t15 -28v-184q0 -17 -15 -28q-15 -12 -35 -12h-4q-21 0 -36 12q-15 11 -15 28zM323 120q0 2 1 8q6 15 18 47q3 15 11 46q4 11 13 11q-1 0 38 -14q40 -14 65 -14q83 0 83 56q0 44 -79 44q-10 0 -28 -1q-17 -1 -23 -1q-26 0 -28 1q-19 2 -19 14q0 65 5 82 q3 10 14 10q14 0 42 -3q28 -4 43 -4q18 0 30 12q12 13 12 31q0 50 -73 50q-31 0 -83 -16q-2 -1 -4 -1q-5 0 -9 12q-1 18 -2 41q-1 5 -3 20q-2 13 -2 20q0 23 70 35q48 9 93 9q72 0 126 -32q66 -38 66 -106q0 -77 -70 -118q41 -14 66 -47q24 -33 24 -76q0 -79 -65 -121 q-55 -37 -138 -37q-64 0 -105 9q-89 19 -89 33zM748 491v44q0 8 11 12q62 26 97 70q8 9 13 9q1 0 5 -1q16 -3 48 -11q17 -2 50 -7q6 -2 6 -10q0 -2 -1 -9q-5 -37 -5 -182q0 -50 1 -147v-147q0 -8 -7 -15t-16 -7h-61q-40 -1 -61 -1q-15 0 -15 14l1 5q5 162 5 196v126 q0 12 -5 12q-9 0 -26 -5t-26 -5q-13 0 -13 16q0 14 -1 43zM1030 1031v184q0 16 14 28q15 12 36 12h4q21 0 35 -12q15 -12 15 -28v-184q0 -17 -15 -28q-14 -12 -35 -12h-4q-21 0 -36 12q-14 11 -14 28z" />
<glyph unicode="&#xf019;" horiz-adv-x="1490" d="M0 732q0 216 203 370q203 153 490 153q286 0 489 -153q203 -154 203 -370q0 -214 -203 -355q-198 -138 -489 -138q-46 0 -90 4l-372 -201l110 269q-341 153 -341 421zM665 178h32q254 0 450 98q193 97 277 263q66 -82 66 -178q0 -178 -225 -278l72 -178l-245 133 q-30 -3 -60 -3q-235 0 -367 143z" />
<glyph unicode="&#xf020;" d="M0 446v268h128q21 82 67 155l-93 93l189 189l97 -97q72 42 153 61v140h268v-139q80 -19 151 -60l97 97l189 -189l-92 -92q47 -74 69 -158h127v-268h-127q-21 -84 -68 -158l91 -92l-189 -189l-96 96q-72 -41 -152 -60v-138h-268v139q-81 19 -154 61l-96 -96l-189 189 l93 93q-46 73 -67 155h-128zM331 575q0 -142 101 -242q100 -101 242 -101t243 101q100 100 100 242q0 143 -100 243q-101 101 -243 101t-242 -101q-101 -100 -101 -243z" />
<glyph unicode="&#xf021;" horiz-adv-x="1325" d="M0 661l65 168l80 -31q34 47 80 82l-36 81l165 73l37 -84q56 9 111 1l34 88l168 -65l-33 -87q45 -31 80 -74l74 33l8 -17l10 5l66 -148l-80 -36q12 -58 5 -116l80 -31l-64 -168l-80 31q-34 -48 -82 -84l36 -79l-165 -73l-37 83q-55 -8 -110 -1l-34 -87l-168 65l33 87 q-46 32 -82 76l-83 -37l-74 164l81 36q-11 57 -4 114zM240 662q-35 -89 4 -177q39 -87 129 -121q89 -35 177 4q87 39 122 129q34 89 -5 177q-39 87 -129 121q-89 35 -177 -4q-87 -39 -121 -129zM768 220l38 99l47 -18q20 28 47 48l-21 48l97 43l22 -50q33 5 65 1l20 52 l99 -38l-19 -52q26 -18 47 -43l50 22l43 -97l-47 -21q7 -34 3 -68l47 -18l-38 -100l-47 18q-20 -28 -48 -48l21 -47l-97 -43l-22 49q-32 -5 -65 -1l-20 -51l-99 38l20 51q-27 19 -48 45l-49 -22l-44 97l48 21q-7 34 -3 67zM787 1032l38 100l47 -19q20 28 47 48l-21 48l97 43 l22 -50q33 6 65 1l20 52l99 -38l-19 -52q27 -18 47 -43l50 22l43 -97l-47 -21q7 -34 3 -68l47 -18l-38 -99l-47 18q-20 -29 -48 -49l21 -47l-97 -43l-22 49q-32 -5 -65 -1l-19 -51l-100 38l20 51q-27 19 -48 45l-39 -17l-7 16l-11 -4l-36 80l48 21q-7 34 -3 67zM909 221 q-20 -53 2 -104q23 -51 76 -72q53 -20 104 3q52 23 72 76q20 52 -3 104q-23 51 -75 71q-53 21 -105 -2q-51 -23 -71 -76zM928 1033q-20 -52 3 -104q23 -51 75 -72q53 -20 104 3q52 23 72 76q20 52 -3 104q-23 51 -75 72q-53 20 -104 -3q-52 -23 -72 -76z" />
<glyph unicode="&#xf022;" horiz-adv-x="1076" d="M1 961q13 100 147 192q1 20 17 30l96 65q14 9 30 6t25 -16l196 -292q9 -13 6 -29t-16 -25l-96 -65q-19 -12 -39 -3q-59 -55 -49 -157q9 -94 70 -190q61 -98 143 -149q91 -57 172 -35q2 19 17 29l96 65q14 9 30 6t25 -16l196 -292q9 -13 6 -29t-16 -25l-96 -65 q-16 -11 -35 -4q-119 -75 -211 -51q-81 20 -207 141q-309 298 -443 637q-74 188 -64 272z" />
<glyph unicode="&#xf023;" horiz-adv-x="1401" d="M0 -6q0 200 118 337q138 161 390 161q236 0 377 -163q124 -142 124 -335q0 -45 -5 -89h-999q-5 44 -5 89zM146 889q0 152 108 259q107 107 258 107q152 0 259 -107t107 -259t-107 -259t-259 -107q-151 0 -258 107q-108 107 -108 259zM751 547q86 55 136 144q51 92 51 198 q0 42 -9 83q33 9 66 10q121 4 209 -79q89 -82 93 -203t-78 -209q-83 -89 -204 -93q-83 -3 -155 38q-70 40 -109 111zM910 365q43 8 92 8q188 0 300 -130q99 -113 99 -267q0 -36 -4 -71h-333q4 44 4 89q0 224 -158 371z" />
<glyph unicode="&#xf024;" horiz-adv-x="1288" d="M0 313l720 828q97 111 228 114q118 2 214 -80q95 -82 110 -199q16 -129 -83 -242l-157 -181q31 83 -34 196l75 86q53 61 44 129q-7 62 -58 105q-51 42 -114 41q-69 -2 -120 -60l-629 -724l248 -215l331 381q34 39 40 76q5 33 -14 51q-19 17 -50 8q-36 -11 -72 -52 l-182 -210l-114 100l166 190q92 107 198 125q95 17 161 -41t63 -154q-4 -107 -96 -213l-406 -467z" />
<glyph unicode="&#xf025;" horiz-adv-x="2246" d="M0 4v1237h2246v-1237h-2246zM142 488q137 -15 231 -116q95 -102 100 -241h1336q5 130 91 230q84 98 211 123v324q-116 23 -198 107q-82 85 -100 202h-1357q-13 -125 -101 -216q-89 -91 -213 -110v-303zM740 511l25 96h57q-1 8 -1 28q0 21 1 30h-69l24 97h59 q67 272 377 272q100 0 204 -55l-48 -191q-72 66 -151 66q-101 0 -138 -92h191l-23 -97h-187q-1 -10 -1 -30v-28h198l-23 -96h-161q32 -98 136 -98q114 0 212 73v-196q-81 -57 -198 -57q-188 0 -279 86q-90 86 -109 192h-96z" />
<glyph unicode="&#xf026;" horiz-adv-x="1682" d="M0 414q0 348 246 595q247 246 595 246t595 -246q246 -247 246 -595q0 -284 -171 -509h-1340q-171 225 -171 509zM123 534q0 -55 39 -94q38 -38 93 -38t93 38q39 39 39 94q0 54 -39 93q-38 38 -93 38t-93 -38q-39 -39 -39 -93zM357 848q0 -54 38 -93q39 -38 93 -38 q55 0 93 38q39 39 39 93q0 55 -39 94q-38 38 -93 38q-54 0 -93 -38q-38 -39 -38 -94zM642 269q0 -83 58 -141q59 -59 142 -59t141 59q59 58 59 141q0 26 -7 52l196 285l-275 -173q-51 36 -114 36q-83 0 -142 -58q-58 -59 -58 -142zM714 962q0 -54 39 -93q38 -38 93 -38 q54 0 93 38q39 39 39 93q0 55 -39 94q-39 38 -93 38q-55 0 -93 -38q-39 -39 -39 -94zM1083 848q0 -54 39 -93q38 -38 93 -38t93 38q39 39 39 93q0 55 -39 94q-38 38 -93 38t-93 -38q-39 -39 -39 -94zM1317 534q0 -55 38 -94q39 -38 93 -38q55 0 93 38q39 39 39 94 q0 54 -39 93q-38 38 -93 38q-54 0 -93 -38q-38 -39 -38 -93z" />
<glyph unicode="&#xf027;" horiz-adv-x="1872" d="M0 -18q0 173 65 323q63 146 170 235q110 -127 277 -127q162 0 270 119q104 -90 165 -233q62 -148 62 -317q0 -46 -5 -90h-1000q-4 44 -4 90zM146 877q0 151 108 258q107 107 258 107q152 0 259 -107q108 -107 108 -258q0 -152 -108 -259q-107 -108 -259 -108 q-151 0 -258 108q-108 107 -108 259zM427 57l93 -136l91 136l-68 170h-47zM470 356l29 -103h44l30 103h-103zM966 387q56 95 133 159q109 -126 276 -126q162 0 271 119q104 -91 164 -234q62 -147 62 -316q0 -46 -4 -89h-800q5 40 5 82q0 227 -107 405zM1010 883 q0 152 107 260q108 106 258 106q152 0 260 -106q107 -108 107 -260q0 -151 -107 -259q-108 -106 -260 -106q-150 0 -258 106q-107 108 -107 259zM1298 57l93 -136l91 136l-69 170h-46zM1341 356l29 -103h44l30 103h-103z" />
<glyph unicode="&#xf028;" horiz-adv-x="1542" d="M0 672q0 242 226 412q226 171 545 171t545 -171q226 -170 226 -412q0 -238 -226 -395q-221 -153 -545 -153q-50 0 -100 5l-414 -224l122 300q-379 169 -379 467zM313 519q0 -53 38 -90q37 -38 90 -38t91 38q37 37 37 90t-37 91q-38 37 -91 37t-90 -37q-38 -38 -38 -91z M681 519q0 -53 38 -90q37 -38 90 -38t90 38q38 37 38 90t-38 91q-37 37 -90 37t-90 -37q-38 -38 -38 -91zM1049 519q0 -53 37 -90q38 -38 91 -38t90 38q38 37 38 90t-38 91q-37 37 -90 37t-91 -37q-37 -38 -37 -91z" />
<glyph unicode="&#xf029;" horiz-adv-x="1542" d="M0 672q0 242 226 412q226 171 545 171t545 -171q226 -170 226 -412q0 -238 -226 -395q-221 -153 -545 -153q-50 0 -100 5l-414 -224l122 300q-379 169 -379 467z" />
<glyph unicode="&#xf030;" horiz-adv-x="1179" d="M0 -95v1350h616v-563h563v-787h-1179zM161 239h197v-204h166v204h204v167h-204v197h-166v-197h-197v-167zM711 787v468l468 -468h-468z" />
<glyph unicode="&#xf031;" horiz-adv-x="1179" d="M0 -95v1350h654v-525h525v-825h-1179zM711 787v468l468 -468h-468z" />
<glyph unicode="&#xf032;" horiz-adv-x="1179" d="M0 -95v1350h654v-525h525v-825h-1179zM143 76h383v108h-383v-108zM143 278h881v108h-881v-108zM143 480h881v108h-881v-108zM711 787v468l468 -468h-468z" />
<glyph unicode="&#xf033;" horiz-adv-x="1481" d="M0 1077q0 33 23 56l99 99q23 23 56 23t56 -23l128 -129l-210 -210l-129 128q-23 23 -23 56zM191 853l211 211l474 -474l-210 -211zM326 -95v742l343 -344l453 -166l-167 449l-629 629v13h640v-515h515v-808h-1155zM711 345l200 201l115 -315zM1022 769v459l459 -459h-459 z" />
<glyph unicode="&#xf034;" horiz-adv-x="1408" d="M0 631v442h249v176h620l108 -107l335 -337l96 -96v-813h-1159v735h-249zM152 711q1 -1 4 -2q2 -1 6 -1h9h10q4 0 7 1q2 1 3 2t1 4v67q4 -6 10 -9q4 -3 9 -6t10 -4q6 -1 12 -1q14 0 26 6q12 5 20 16q7 11 12 26q4 15 4 35q0 16 -3 30q-4 14 -10 25q-8 11 -19 16 q-10 7 -27 7q-6 0 -14 -1l-12 -6t-13 -7q-5 -6 -12 -12v17q0 1 -1 2q0 1 -2 2t-5 1q-4 2 -9 2q-4 0 -8 -2q-3 0 -5 -1t-3 -2v-2v-199v-4zM192 819v46q4 7 9 11l8 8q5 2 8 3q4 1 9 1q7 0 13 -3q5 -5 8 -11q3 -7 5 -15q1 -8 1 -18q0 -7 -1 -16l-6 -14q-3 -6 -9 -11 q-5 -4 -14 -4q-7 0 -15 6q-7 6 -16 17zM319 840q0 -15 3 -30q3 -14 11 -25q6 -11 18 -16q11 -7 27 -7t27 7q12 6 23 18v-16q0 -2 1 -3t4 -3q2 0 4 -1h9h8q4 1 5 1l3 3t1 3v210q0 1 -1 2l-3 3q-3 1 -7 1q-3 1 -10 1q-5 0 -9 -1q-4 0 -6 -1q-3 -2 -3 -3q-1 -1 -1 -2v-78 q-10 10 -20 15q-9 5 -21 5q-16 0 -27 -6q-12 -6 -20 -16q-8 -11 -12 -26t-4 -35zM357 2h955v707h-437v433h-518v-69h413v-442h-413v-629zM360 844q0 7 2 16q1 7 4 14q5 6 10 11q6 4 13 4q9 0 16 -6q9 -6 18 -17v-47q-6 -7 -10 -11q-4 -5 -9 -7q-3 -3 -7 -4q-5 -1 -9 -1 q-7 0 -13 4q-5 5 -9 11q-3 7 -5 15q-1 8 -1 18zM473 72v111h492v-111h-492zM473 247v112h750v-112h-750zM473 423v112h750v-112h-750zM484 903q0 -9 2 -13q1 -3 4 -3h18v-116v-3q2 -1 4 -1q2 -2 6 -2q5 -1 10 -1t10 1q4 0 6 2q2 0 3 1q2 2 2 3v116h26q3 0 4 3q2 4 2 13 q0 4 -1 8q0 3 -1 5q-3 3 -4 3h-26v13q0 7 1 12q0 5 2 8q2 2 5 4q3 1 8 1q3 0 6 -1q3 0 5 -1l3 -1h4q2 3 2 7q2 3 2 7q0 5 -2 8q0 3 -1 5q0 2 -1 3q-1 2 -4 3t-9 2t-12 1q-13 0 -22 -4q-10 -4 -16 -11t-9 -19q-3 -11 -3 -25v-12h-18q-1 0 -2 -1q-3 -4 -3 -7q-1 -4 -1 -8z" />
<glyph unicode="&#xf035;" horiz-adv-x="950" d="M0 -104v1360h950v-1360h-950zM91 -1h752v1147h-752v-1147zM136 136v122h122v-122h-122zM136 346v123h122v-123h-122zM136 555v121h122v-121h-122zM136 766v122h122v-122h-122zM136 976v122h122v-122h-122zM321 -20v222h294v-222h-294zM321 346v123h122v-123h-122z M321 555v121h122v-121h-122zM321 766v122h122v-122h-122zM321 976v122h122v-122h-122zM493 346v123h122v-123h-122zM493 555v121h122v-121h-122zM493 766v122h122v-122h-122zM493 976v122h122v-122h-122zM677 136v122h122v-122h-122zM677 346v123h122v-123h-122zM677 555 v121h122v-121h-122zM677 766v122h122v-122h-122zM677 976v122h122v-122h-122z" />
<glyph unicode="&#xf036;" horiz-adv-x="1296" d="M0 553q0 55 40 94.5t95.5 39.5t95 -39.5t39.5 -94.5t-39.5 -95t-95 -40t-95.5 40t-40 95zM149 930.5q0 61.5 43.5 105t105 43.5t105 -43.5t43.5 -105t-43.5 -105t-105 -43.5t-105 43.5t-43.5 105zM176 174.5q0 50.5 35.5 86t85.5 35.5t86 -35.5t36 -86t-36 -85.5t-86 -35 t-85.5 35t-35.5 85.5zM514 1093q0 67 47 114.5t114 47.5t114.5 -47.5t47.5 -114.5t-47.5 -114.5t-114.5 -47.5t-114 47.5t-47 114.5zM568 12q0 45 31.5 76.5t76 31.5t75.5 -31.5t31 -76.5t-31 -76t-75.5 -31t-76 31t-31.5 76zM959 174.5q0 38.5 27.5 66.5t66 28t66.5 -28 t28 -66.5t-28 -66t-66.5 -27.5t-66 27.5t-27.5 66zM986 931q0 28 19.5 47.5t47.5 19.5t48 -19.5t20 -47.5t-20 -48t-48 -20t-47.5 20t-19.5 48zM1135 552.5q0 33.5 23 57t57 23.5t57.5 -23.5t23.5 -57t-23.5 -57t-57.5 -23.5t-57 23.5t-23 57z" />
<glyph unicode="&#xf037;" horiz-adv-x="675" d="M0 -98v401l274 274l-274 273v401l675 -674z" />
<glyph unicode="&#xf038;" horiz-adv-x="1349" d="M0 894h401l274 -274l273 274h401l-674 -675z" />
<glyph unicode="&#xf039;" horiz-adv-x="1349" d="M0 219l675 675l674 -675h-401l-273 274l-274 -274h-401z" />
<glyph unicode="&#xf040;" horiz-adv-x="675" d="M0 579l675 674v-401l-274 -273l274 -274v-401z" />
<glyph unicode="&#xf041;" horiz-adv-x="1419" d="M0 739l500 58l210 458l209 -458l500 -58l-371 -340l100 -494l-438 248l-439 -248l100 494z" />
<glyph unicode="&#xf042;" horiz-adv-x="1042" d="M0 -87v1342h1042v-1350l-524 463z" />
<glyph unicode="&#xf043;" horiz-adv-x="1355" d="M0 580q0 137 53 263q52 122 145 216q94 93 216 145q126 53 264 53q137 0 263 -53q122 -52 216 -145q93 -94 145 -216q53 -126 53 -263q0 -138 -53 -264q-52 -122 -145 -216q-94 -93 -216 -145q-126 -53 -263 -53q-251 0 -441 163l553 258l99 -213l238 655l-654 238 l104 -223l-574 -268q-3 34 -3 68z" />
<glyph unicode="&#xf044;" horiz-adv-x="964" d="M0 991h964l-86 -975q-387 -116 -397 -111q-11 6 -395 108zM96 1255h57v-65h57v65h58v-190h-58v69h-57v-69h-56zM187 788l29 -357h420l-13 -153l-135 -43l-142 41l-6 94h-117l16 -188l245 -73l248 75l31 359h-436l-10 126h461l12 119h-603zM299 1198v57h168v-57h-57v-133 h-54v133h-57zM498 1065v190h54l48 -63l44 63h57v-190h-53v101l-48 -54l-53 54v-101h-49zM734 1065v190h53v-134h93v-56h-146z" />
<glyph unicode="&#xf045;" horiz-adv-x="1385" d="M0 116l55 274h226l-22 -115l332 -132l383 135l53 265h-947l47 233h947l29 146h-948l46 233h1184l-208 -1044l-633 -206z" />
<glyph unicode="&#xf046;" horiz-adv-x="1391" d="M0 307v198h95q16 62 50 115l-69 70l140 140l72 -72q54 31 114 46v103h199v-103q59 -14 112 -44l72 72l140 -141l-68 -68q35 -55 51 -117h95l-1 -199h-94q-15 -63 -51 -118l68 -68l-140 -140l-72 71q-53 -30 -112 -44v-103h-199v103q-61 14 -114 46l-72 -72l-140 141 l69 69q-34 53 -50 115h-95zM246 403q0 -106 74 -180q75 -75 181 -75q105 0 180 75q74 74 74 180q0 105 -74 180q-75 75 -180 75q-106 0 -181 -75q-74 -75 -74 -180zM807 918l52 19q-4 36 4 72l-51 24l49 104l53 -25q23 28 53 47l-21 57l108 39l20 -56q35 4 70 -2l25 53 l104 -48l-23 -51q29 -23 51 -53l51 18l39 -108l-51 -18q4 -38 -5 -74l51 -24l-49 -104l-53 25q-23 -27 -52 -47l20 -55l-108 -40l-20 56q-36 -4 -71 2l-25 -52l-104 48l24 51q-29 23 -50 53l-51 -19zM961 911q21 -57 76 -83t113 -5q57 21 83 76t5 113q-21 57 -76 83 q-56 25 -113 5q-57 -21 -83 -77q-26 -55 -5 -112z" />
<glyph unicode="&#xf047;" horiz-adv-x="1419" d="M0 739l501 58l209 458v-1102l-439 -248l100 494z" />
<glyph unicode="&#xf048;" horiz-adv-x="1179" d="M0 -95v1350h616v-563h563v-787h-1179zM180 239h567v167h-567v-167zM711 787v468l468 -468h-468z" />
<glyph unicode="&#xf049;" horiz-adv-x="1179" d="M0 -95v1350h654v-525h525v-825h-1179zM160 159q74 178 194 193q107 14 228 -100l-67 -115h420l-210 363l-53 -91q-227 101 -362 31q-129 -68 -150 -281zM711 787v468l468 -468h-468z" />
<glyph unicode="&#xf050;" horiz-adv-x="1179" d="M0 -95v1350h654v-525h525v-825h-1179zM147 372l280 -288l449 450l-114 114l-331 -331l-169 169zM711 787v468l468 -468h-468z" />
<glyph unicode="&#xf051;" horiz-adv-x="1179" d="M0 -95v1350h654v-525h525v-825h-1179zM144 218l118 -118l145 144l144 -144l118 118l-144 144l139 139l-118 118l-139 -139l-139 139l-118 -118l139 -139zM711 787v468l468 -468h-468z" />
<glyph unicode="&#xf052;" horiz-adv-x="1721" d="M0 321q0 138 83 249q81 108 209 148q-12 50 -12 103q0 180 127 307t307 127q158 0 278 -100q119 -100 149 -251q137 -8 231 -108q94 -101 94 -239q0 -62 -21 -120h10q110 0 188 -78t78 -188q0 -109 -76 -186t-184 -80h-13l-1013 1q-10 -1 -19 -1q-10 0 -20 1 q-166 8 -281 128t-115 287z" />
<glyph unicode="&#xf053;" horiz-adv-x="1721" d="M0 321q0 138 83 249q81 108 209 148q-12 50 -12 103q0 180 127 307t307 127q158 0 278 -100q119 -100 149 -251q137 -8 231 -108q94 -101 94 -239q0 -62 -21 -120h10q110 0 188 -78t78 -188q0 -109 -76 -186t-184 -80h-13l-1013 1q-10 -1 -19 -1q-10 0 -20 1 q-166 8 -281 128t-115 287zM230 249h208v-216h177v216h217v177h-217v208h-177v-208h-208v-177z" />
<glyph unicode="&#xf054;" horiz-adv-x="1721" d="M0 321q0 138 83 249q81 108 209 148q-12 50 -12 103q0 180 127 307t307 127q158 0 278 -100q119 -100 149 -251q137 -8 231 -108q94 -101 94 -239q0 -62 -21 -120h10q110 0 188 -78t78 -188q0 -109 -76 -186t-184 -80h-13l-1013 1q-10 -1 -19 -1q-10 0 -20 1 q-166 8 -281 128t-115 287zM331 249h601v177h-601v-177z" />
<glyph unicode="&#xf055;" horiz-adv-x="1721" d="M0 321q0 138 83 249q81 108 209 148q-12 50 -12 103q0 180 127 307t307 127q158 0 278 -100q119 -100 149 -251q137 -8 231 -108q94 -101 94 -239q0 -62 -21 -120h10q110 0 188 -78t78 -188q0 -109 -76 -186t-184 -80h-13l-1013 1q-10 -1 -19 -1q-10 0 -20 1 q-166 8 -281 128t-115 287zM256 349l296 -304l476 476l-121 121l-351 -351l-179 179z" />
<glyph unicode="&#xf056;" horiz-adv-x="1721" d="M0 321q0 138 83 249q81 108 209 148q-12 50 -12 103q0 180 127 307t307 127q158 0 278 -100q119 -100 149 -251q137 -8 231 -108q94 -101 94 -239q0 -62 -21 -120h10q110 0 188 -78t78 -188q0 -109 -76 -186t-184 -80h-13l-1013 1q-10 -1 -19 -1q-10 0 -20 1 q-166 8 -281 128t-115 287zM293 186l125 -125l153 153l153 -153l125 125l-153 153l147 147l-125 125l-147 -147l-147 147l-125 -125l147 -147z" />
<glyph unicode="&#xf057;" horiz-adv-x="1721" d="M0 321q0 138 83 249q81 108 209 148q-12 50 -12 103q0 180 127 307t307 127q158 0 278 -100q119 -100 149 -251q137 -8 231 -108q94 -101 94 -239q0 -62 -21 -120h10q110 0 188 -78t78 -188q0 -109 -76 -186t-184 -80h-13l-1013 1q-10 -1 -19 -1q-10 0 -20 1 q-166 8 -281 128t-115 287zM280 361h148v-240h194v240h138l-240 239z" />
<glyph unicode="&#xf058;" horiz-adv-x="1721" d="M0 321q0 138 83 249q81 108 209 148q-12 50 -12 103q0 180 127 307t307 127q158 0 278 -100q119 -100 149 -251q137 -8 231 -108q94 -101 94 -239q0 -62 -21 -120h10q110 0 188 -78t78 -188q0 -109 -76 -186t-184 -80h-13l-1013 1q-10 -1 -19 -1q-10 0 -20 1 q-166 8 -281 128t-115 287zM308 300l240 -240l239 240h-147v240h-194v-240h-138z" />
<glyph unicode="&#xf059;" horiz-adv-x="1277" d="M0 84v567h928v-94q49 23 103 23q102 0 174 -72t72 -174t-72 -174t-174 -72q-54 0 -103 23v-27q0 -74 -53 -126q-52 -53 -126 -53h-570q-74 0 -126 53q-53 52 -53 126zM207 1006q6 69 100 136q-59 -42 -43 -94q2 -7 59 -99q40 -66 28 -121q-17 -77 -133 -161q74 54 69 115 q-2 31 -45 108q-39 71 -35 116zM405 1086q6 85 99 169q-59 -53 -42 -117q2 -8 58 -123q41 -81 29 -149q-17 -95 -133 -199q74 67 69 142q-2 39 -45 134q-39 88 -35 143zM608 950q7 57 100 113q-59 -35 -43 -79q2 -5 59 -82q40 -55 28 -101q-17 -64 -133 -134q74 45 70 96 q-3 26 -46 90q-39 59 -35 97zM928 221q43 -39 101 -39q62 0 106 44t44 106t-44 106t-106 44q-58 0 -101 -39v-222z" />
<glyph unicode="&#xf060;" d="M0 580q0 280 198 477q197 198 477 198t477 -198q198 -197 198 -477t-198 -477q-197 -198 -477 -198t-477 198q-198 197 -198 477zM170 584q0 -211 149 -360q149 -148 359 -148q211 0 360 148q149 149 149 360q0 210 -149 359t-360 149q-210 0 -359 -149t-149 -359z M217 509v138l152 -69zM304 857l97 97l59 -156zM346 257l251 425l424 250l-250 -425zM606 592q0 -30 21 -52q22 -21 52 -21q31 0 52 21q22 22 22 52q0 31 -22 52q-21 22 -52 22q-30 0 -52 -22q-21 -21 -21 -52zM612 115l68 152l69 -152h-137zM612 1041h137l-69 -152zM900 358 l156 -59l-97 -97zM991 578l152 69v-138z" />
<glyph unicode="&#xf061;" horiz-adv-x="1745" d="M0 881q0 70 50 120q49 50 120 50q70 0 120 -50q49 -50 49 -120q0 -53 -30 -97q-30 -42 -78 -61l311 -220l287 420q-58 16 -90 68q-27 43 -27 94q0 71 49 120q50 50 120 50t120 -50q50 -49 50 -120q0 -53 -27 -96q-33 -51 -94 -68l294 -418l300 216q-52 17 -85 61 q-33 45 -33 101q0 70 49 120q50 50 120 50q71 0 120 -50q50 -50 50 -120q0 -56 -33 -101q-33 -44 -85 -60l-194 -481h-1127l-190 481q-51 17 -83 61q-33 45 -33 100zM320 -95v278h1104v-278h-1104z" />
<glyph unicode="&#xf062;" horiz-adv-x="1567" d="M2 862q-15 176 104 292q119 115 297 99q197 -17 376 -196q178 179 375 196q178 16 297 -99q119 -116 104 -292q-16 -196 -200 -381l-576 -576l-577 576q-184 185 -200 381z" />
<glyph unicode="&#xf063;" horiz-adv-x="1827" d="M0 -95l457 305l402 268v106q-115 26 -189 118q-75 93 -75 213q0 141 100 240q100 100 240 100q141 0 241 -100q99 -99 99 -240q0 -17 -1 -33h-133q3 16 3 33q0 84 -60 143q-59 60 -144 60q-84 0 -143 -60q-60 -59 -60 -143q0 -85 60 -144q59 -60 143 -60q41 0 77 15v-280 l353 -236l457 -305h-1827zM489 44h424h425l-212 141l-213 142l-212 -142z" />
<glyph unicode="&#xf064;" horiz-adv-x="838" d="M0 836q0 173 123 296q122 123 296 123t296 -123q123 -123 123 -296q0 -174 -123 -297q-122 -122 -296 -122t-296 122q-123 123 -123 297zM97 721h643l-146 -416h-323zM272 -46v102h324v-102h-324zM272 91v66h324v-66h-324zM272 193v66h324v-66h-324zM346 -29h176l-14 -66 h-143z" />
<glyph unicode="&#xf065;" horiz-adv-x="1212" d="M0 138q0 97 68 165q69 68 165 68q67 0 124 -35v735l855 184v-981q0 -96 -68 -165q-69 -68 -165 -68q-97 0 -165 68q-68 69 -68 165q0 97 68 165q68 69 165 69q67 0 123 -36v460l-636 -136v-658q0 -96 -68 -165q-68 -68 -165 -68q-96 0 -165 68q-68 69 -68 165z" />
<glyph unicode="&#xf066;" horiz-adv-x="1072" d="M23 1104q262 40 300 49q131 32 192 102q60 -70 191 -102q39 -9 301 -49q65 -473 -56 -753q-114 -264 -436 -446q-323 182 -437 446q-121 280 -55 753zM23 1104q262 40 300 49q131 32 192 102q60 -70 191 -102q39 -9 301 -49q65 -473 -56 -753q-114 -264 -436 -446 q-323 182 -437 446q-121 280 -55 753z" />
<glyph unicode="&#xf067;" horiz-adv-x="1072" d="M23 1104q262 40 300 49q131 32 192 102q60 -70 191 -102q39 -9 301 -49q65 -473 -56 -753q-114 -264 -436 -446q-323 182 -437 446q-121 280 -55 753zM23 1104q262 40 300 49q131 32 192 102q60 -70 191 -102q39 -9 301 -49q65 -473 -56 -753q-114 -264 -436 -446 q-323 182 -437 446q-121 280 -55 753zM122 1007q-52 -376 44 -599q91 -210 346 -355v1072q-48 -54 -152 -79q-30 -7 -238 -39zM122 1007q-52 -376 44 -599q91 -210 346 -355v1072q-48 -54 -152 -79q-30 -7 -238 -39z" />
<glyph unicode="&#xf068;" d="M0 580q0 280 198 477q197 198 477 198t477 -198q198 -197 198 -477t-198 -477q-197 -198 -477 -198t-477 198q-198 197 -198 477zM44 606h224q4 136 42 258h-202q-60 -122 -64 -258zM45 557q6 -137 69 -258h195q-38 122 -41 258h-223zM135 912h192q88 228 252 296 q-291 -43 -444 -296zM142 251q139 -219 391 -276q-134 82 -207 276h-184zM313 557q4 -137 42 -258h304q-2 123 -2 258h-344zM313 606h344q0 135 3 258h-305q-39 -121 -42 -258zM372 251q48 -126 126 -200q81 -78 174 -84q-8 107 -12 284h-288zM372 912h289q4 181 12 284 q-94 -6 -174 -83q-79 -75 -127 -201zM705 1196q7 -104 12 -284h284q-48 124 -125 199q-79 77 -171 85zM706 -32q92 7 170 84q77 75 125 199h-284q-4 -177 -11 -283zM718 299h300q39 121 42 258h-340q0 -134 -2 -258zM718 864q2 -123 2 -258h340q-3 137 -42 258h-300z M816 1198q149 -75 230 -286h162q-137 226 -392 286zM861 -11q217 68 340 262h-154q-66 -177 -186 -262zM1063 864q38 -122 42 -258h194q-4 136 -64 258h-172zM1064 299h165q63 121 69 258h-193q-3 -136 -41 -258z" />
<glyph unicode="&#xf069;" horiz-adv-x="1365" d="M0 547h244q3 -148 44 -281h-212q-69 132 -76 281zM0 547h244q3 -148 44 -281h-212q-69 132 -76 281zM0 600q4 148 70 281h219q-41 -133 -45 -281h-244zM0 600q4 148 70 281h219q-41 -133 -45 -281h-244zM98 933q167 275 484 322q-179 -74 -274 -322h-210zM98 933 q167 275 484 322q-179 -74 -274 -322h-210zM106 213h200q80 -210 225 -300q-274 62 -425 300zM106 213h200q80 -210 225 -300q-274 62 -425 300zM293 547h374q0 -147 2 -281h-331q-42 132 -45 281zM293 547h374q0 -147 2 -281h-331q-42 132 -45 281zM293 600q3 149 45 281 h331q-2 -134 -2 -281h-374zM293 600q3 149 45 281h331q-2 -134 -2 -281h-374zM356 213h314q4 -192 13 -308q-102 7 -189 90q-85 82 -138 218zM356 213h314q4 -192 13 -308q-102 7 -189 90q-85 82 -138 218zM356 933q53 137 138 219q88 84 190 90q-9 -112 -13 -309h-315z M356 933q53 137 138 219q88 84 190 90q-9 -112 -13 -309h-315zM718 1242q101 -8 187 -92q84 -82 136 -217h-309q-5 196 -14 309zM718 1242q101 -8 187 -92q84 -82 136 -217h-309q-5 196 -14 309zM720 -95q8 116 12 308h309q-52 -134 -136 -216q-85 -83 -185 -92zM720 -95 q8 116 12 308h309q-52 -134 -136 -216q-85 -83 -185 -92zM733 266q2 134 3 281h369q-4 -149 -45 -281h-327zM733 266q2 134 3 281h369q-4 -149 -45 -281h-327zM733 881h327q41 -132 45 -281h-369q-1 147 -3 281zM733 881h327q41 -132 45 -281h-369q-1 147 -3 281zM839 1244 q279 -65 428 -311h-177q-88 229 -251 311zM839 1244q279 -65 428 -311h-177q-88 229 -251 311zM888 -72q131 93 203 285h168q-134 -210 -371 -285zM888 -72q131 93 203 285h168q-134 -210 -371 -285zM1108 881h187q66 -133 70 -281h-211q-4 148 -46 281zM1108 881h187 q66 -133 70 -281h-211q-4 148 -46 281zM1109 266q41 133 45 281h211q-7 -149 -76 -281h-180zM1109 266q41 133 45 281h211q-7 -149 -76 -281h-180z" />
<glyph unicode="&#xf070;" horiz-adv-x="1674" d="M0 929q0 135 96 231q95 95 231 95q134 0 230 -95q95 -96 95 -231t-95 -230q-96 -96 -230 -96q-136 0 -231 96q-96 95 -96 230zM163 -95v641h1042v-641h-1042zM702 929q0 135 95 231q96 95 231 95t230 -95q96 -96 96 -231t-96 -230q-95 -96 -230 -96t-231 96 q-95 95 -95 230zM1248 137v266l255 107v-480zM1542 -18v593h132v-593h-132z" />
<glyph unicode="&#xf071;" horiz-adv-x="1540" d="M0 46q41 435 298 574q268 145 720 -64l105 188l417 -744h-834l133 236q-242 234 -454 205q-238 -32 -385 -395z" />
<glyph unicode="&#xf072;" horiz-adv-x="368" d="M0 0h351l-49 583h-253zM3 905q0 -75 54 -129q53 -53 129 -53q75 0 128 53q54 54 54 129t-54 129q-53 53 -128 53q-76 0 -129 -53q-54 -54 -54 -129z" />
<glyph unicode="&#xf073;" horiz-adv-x="1179" d="M0 855v112q0 55 39 94q38 39 93 39h190v67q0 37 25 62q26 26 63 26h331q37 0 63 -26q25 -25 25 -62v-67h218q54 0 93 -39t39 -94v-112h-1179zM43 27v759h1090v-759q0 -50 -35 -86q-36 -36 -86 -36h-847q-50 0 -86 36t-36 86zM146 142q0 -34 20 -57q19 -25 48 -25 q28 0 48 25q19 23 19 57v431q0 33 -19 58q-20 23 -48 23q-29 0 -48 -23q-20 -25 -20 -58v-431zM406 1100h350v27q0 18 -13 31t-30 13h-263q-18 0 -31 -13t-13 -31v-27zM408 142q0 -34 20 -57q20 -25 48 -25t48 25q20 23 20 57v431q0 33 -20 58q-20 23 -48 23t-48 -23 q-20 -25 -20 -58v-431zM659 142q0 -34 19 -57q20 -25 48 -25q29 0 48 25q20 23 20 57v431q0 33 -20 58q-19 23 -48 23q-28 0 -48 -23q-19 -25 -19 -58v-431zM894 142q0 -34 20 -57q20 -25 47 -25q29 0 48 25q20 23 20 57v431q0 33 -20 58q-19 23 -48 23q-27 0 -47 -23 q-20 -25 -20 -58v-431z" />
<glyph unicode="&#xf074;" horiz-adv-x="1512" d="M12 -31q-27 64 12 118l637 1113q39 55 94 55q57 0 96 -55l636 -1113q40 -55 15 -118q-26 -64 -89 -64h-1314q-62 0 -87 64zM625 856l37 -445h194l37 445h-268zM659 71h207v208h-207v-208z" />
<glyph unicode="&#xf075;" horiz-adv-x="1200" d="M0 136v1119h936v-260l-120 115h-678v-974h-138zM178 -95v1170h567v-456h455v-714h-1022zM794 669v406l406 -406h-406z" />
<glyph unicode="&#xf076;" d="M0 493l762 762h588v-588l-762 -762zM1014 1009q0 -43 31 -74q31 -30 73 -30q44 0 74 30q31 31 31 74q0 44 -31 74q-30 31 -74 31q-42 0 -73 -31q-31 -30 -31 -74z" />
<glyph unicode="&#xf077;" horiz-adv-x="1708" d="M0 493l762 762h226l-762 -762l475 -475l-113 -113zM358 493l762 762h588v-588l-762 -762zM1373 1009q0 -43 30 -74q31 -30 73 -30q44 0 74 30q31 31 31 74q0 44 -31 74q-30 31 -74 31q-42 0 -73 -31q-30 -30 -30 -74z" />
<glyph unicode="&#xf078;" d="M0 499v162h448v-162h-448zM140 160l318 317l114 -114l-317 -318zM140 1000l115 115l317 -318l-114 -114zM594 -95v448h162v-448h-162zM594 807v448h162v-448h-162zM778 363l114 114l318 -317l-115 -115zM778 797l317 318l115 -115l-318 -317zM902 499v162h448v-162h-448z " />
<glyph unicode="&#xf079;" d="M0 580q0 280 197 478q199 197 478 197q280 0 478 -197q197 -198 197 -478q0 -279 -197 -478q-198 -197 -478 -197q-279 0 -478 197q-197 199 -197 478zM536 994l41 -477h207l40 477h-288zM573 155h222v221h-222v-221z" />
<glyph unicode="&#xf080;" horiz-adv-x="1319" d="M0 6v345q643 -163 1317 0v-345q-659 -202 -1317 0zM0 428v333q643 -164 1317 0v-333q-659 -203 -1317 0zM0 844v299q643 -165 1317 0v-299q-659 -202 -1317 0zM2 856v297q659 204 1317 0v-297q-643 164 -1317 0z" />
<glyph unicode="&#xf081;" horiz-adv-x="1537" d="M0 296l496 497l331 -331l256 273l-140 141l297 79l297 80l-80 -297l-79 -297l-129 128l-422 -439l-331 330l-330 -330z" />
<glyph unicode="&#xf082;" horiz-adv-x="1345" d="M0 670q35 250 225 416q192 169 448 169q238 0 424 -148l171 107l20 -568l-502 267l153 95q-124 80 -273 80q-186 0 -328 -120q-140 -118 -174 -298h-164zM57 514l501 -267l-153 -95q125 -80 274 -80q186 0 328 120q140 118 174 298h164q-35 -250 -226 -416 q-191 -169 -447 -169q-238 0 -424 148l-171 -107z" />
<glyph unicode="&#xf083;" horiz-adv-x="1653" d="M0 1134h140l14 121h470l52 -121h977l-9 -222h-1635zM12 836h1629l-36 -931h-1557z" />
<glyph unicode="&#xf084;" horiz-adv-x="1653" d="M0 1134h140l14 121h470l52 -121h977l-9 -222h-1635zM12 836h1629l-36 -931h-1557zM250 280h218v-225h184v225h225v185h-225v217h-184v-217h-218v-185z" />
<glyph unicode="&#xf085;" horiz-adv-x="1653" d="M0 1134h140l14 121h470l52 -121h977l-9 -222h-1635zM12 836h1629l-36 -931h-1557zM250 280h627v185h-627v-185z" />
<glyph unicode="&#xf086;" horiz-adv-x="1653" d="M0 1134h140l14 121h470l52 -121h977l-9 -222h-1635zM12 836h1629l-36 -931h-1557zM257 385l309 -317l495 496l-126 126l-366 -365l-186 186z" />
<glyph unicode="&#xf087;" horiz-adv-x="1653" d="M0 1134h140l14 121h470l52 -121h977l-9 -222h-1635zM12 836h1629l-36 -931h-1557zM275 215l130 -130l159 159l160 -159l130 130l-159 159l153 154l-130 131l-154 -155l-154 155l-130 -131l154 -154z" />
<glyph unicode="&#xf088;" horiz-adv-x="1653" d="M0 1134h140l14 121h470l52 -121h977l-9 -222h-1635zM12 836h1629l-36 -931h-1557zM231 176q81 196 214 213q118 15 252 -111l-73 -127h462l-231 402l-59 -101q-250 112 -399 34q-143 -75 -166 -310z" />
<glyph unicode="&#xf089;" horiz-adv-x="1155" d="M0 580q0 279 197 477q199 198 478 198q282 0 480 -201l-493 -493l474 -474q-194 -182 -461 -182q-279 0 -478 197q-197 199 -197 478zM471 933q0 -41 28 -70q30 -29 71 -29q40 0 70 29q29 29 29 70t-29 70q-30 29 -70 29q-41 0 -71 -29q-28 -29 -28 -70z" />
<glyph unicode="&#xf090;" horiz-adv-x="1989" d="M2 144q-12 188 55 443q66 255 172 428q119 192 237 192q157 0 264 -95t247 -95q94 0 153 37q32 21 84 82q49 58 94 82q68 37 180 37q134 0 258 -200q110 -176 177 -443q66 -259 56 -455q-11 -212 -110 -232q-103 -23 -177 54q-6 5 -133 187q-95 133 -207 200 q-158 92 -399 92q-208 0 -342 -96q-90 -67 -174 -208q-95 -161 -125 -192q-77 -78 -193 -49q-105 25 -117 231zM271 788q0 -111 78 -191q80 -78 193 -78q112 0 191 78q79 80 79 191q0 113 -79 192t-191 79q-113 0 -193 -79q-78 -79 -78 -192zM374 785q0 69 49 119 q50 49 119 49q68 0 118 -49q49 -50 49 -119q0 -68 -49 -118q-50 -49 -118 -49q-69 0 -119 49q-49 50 -49 118zM1279 719l131 23v87l-131 22v-132zM1403 587h131l-21 131h-88zM1404 987l22 -131h88l21 131h-131zM1530 742l132 -23v132l-132 -22v-87z" />
<glyph unicode="&#xf091;" horiz-adv-x="1829" d="M0 362q0 88 62 149t149 61q64 0 118 -36q52 -36 76 -94h45v363h377v45q-58 23 -94 76q-36 54 -36 118q0 87 62 149q61 62 148 62q88 0 149 -62t61 -149q0 -69 -40 -124q-41 -55 -105 -76v-39h378v-363h74q23 58 76 94q54 36 118 36q87 0 149 -61t62 -149q0 -87 -62 -149 q-62 -61 -149 -61q-69 0 -124 41q-55 40 -76 104h-68v-392h-378v69q64 20 105 75q40 56 40 124q0 87 -61 149t-149 62q-87 0 -148 -62q-62 -62 -62 -149q0 -64 36 -118q36 -53 94 -76v-74h-377v392h-40q-20 -64 -75 -104q-55 -41 -124 -41q-87 0 -149 61q-62 62 -62 149z " />
<glyph unicode="&#xf092;" horiz-adv-x="1352" d="M0 580l675 -675v388h677v547h-677v415z" />
<glyph unicode="&#xf093;" horiz-adv-x="1815" d="M0 580l675 675v-415h464v415l676 -675l-676 -675v388h-464v-388z" />
<glyph unicode="&#xf094;" horiz-adv-x="1343" d="M0 153l219 219l-144 144h521v-521l-129 129l-219 -219zM2 1007l248 248l217 -218l129 129v-521h-521l144 144zM725 -5v521h520l-128 -128l226 -226l-248 -249l-226 226zM725 645v521l144 -144l224 225l248 -249l-224 -224l128 -129h-520z" />
<glyph unicode="&#xf095;" d="M0 -81v626l173 -172l214 214l-214 214l-173 -173v627h627l-155 -155l214 -214l196 196l-172 173h626v-627l-155 155l-196 -196l210 -210l155 155v-627h-627l173 173l-210 210l-214 -214l155 -155h-627z" />
<glyph unicode="&#xf096;" horiz-adv-x="1926" d="M0 512q895 1023 1926 0q-997 -864 -1926 0zM202 515q229 -197 464 -270q-121 120 -121 290q0 189 143 311q-249 -81 -486 -331zM674 530q0 -121 85 -207q86 -86 208 -86q121 0 207 86t86 207q0 122 -86 207q-86 86 -207 86q-122 0 -208 -86q-85 -85 -85 -207zM811 532 q0 65 46 111t112 46q65 0 111 -46t46 -111t-46 -111t-111 -46q-66 0 -112 46t-46 111zM1241 826q122 -120 122 -291q0 -166 -116 -285q232 75 470 265q-243 222 -476 311z" />
<glyph unicode="&#xf097;" horiz-adv-x="1693" d="M0 -95v1350h1693v-1350h-1693zM141 208h1451v926h-1451v-926zM200 288l310 664l283 -443l228 242l501 -463h-1322zM1209 862q0 62 44 107q45 44 108 44q62 0 107 -44q43 -45 43 -107t-43 -107q-45 -44 -107 -44q-63 0 -108 44q-44 45 -44 107z" />
<glyph unicode="&#xf098;" horiz-adv-x="1683" d="M0 99v1156h1449v-1156h-1449zM121 358h1241v793h-1241v-793zM171 428l266 568l242 -379l194 207l429 -396h-1131zM382 52h1109v763l192 -32l-108 -878zM1035 919q0 54 37 91q38 38 92 38q53 0 91 -38q38 -37 38 -91t-38 -92t-91 -38q-54 0 -92 38q-37 38 -37 92z" />
<glyph unicode="&#xf099;" horiz-adv-x="1603" d="M0 25v921q0 49 35 84t85 35h107v190h380v-190h876q50 0 85 -35t35 -84v-921q0 -50 -35 -85t-85 -35h-1363q-50 0 -85 35t-35 85zM148 464q0 -196 138 -336q140 -138 336 -138q197 0 336 138q138 140 138 336t-138 336q-139 139 -336 139q-196 0 -336 -139 q-138 -140 -138 -336zM295 460q0 137 98 235q97 97 235 97t235 -97q98 -98 98 -235q0 -138 -98 -235q-97 -98 -235 -98t-235 98q-98 97 -98 235zM306 1023h233v158h-233v-158zM1218 842q0 -50 35 -84q35 -35 84 -35t84 35q34 34 34 84q0 48 -34 84q-35 34 -84 34t-84 -34 q-35 -36 -35 -84z" />
<glyph unicode="&#xf0a0;" horiz-adv-x="1011" d="M0 343v728q0 86 47 134q49 50 139 50q85 0 123 -42q35 -39 35 -124l3 -173h531q55 0 95 -45q38 -42 38 -95v-56q0 -46 -29 -85q-34 -46 -85 -46h-550l1 -186q0 -62 50 -107q49 -43 107 -43h366q58 0 100 -49q40 -46 40 -100v-48q0 -59 -41 -104q-44 -47 -103 -47h-469 q-25 0 -127 44q-132 60 -205 175q-66 105 -66 219z" />
<glyph unicode="&#xf0a1;" horiz-adv-x="1928" d="M0 287q216 -138 400 -128q161 7 285 129q-201 69 -50 186q-119 -5 -192 78q-20 21 -23 31q-4 17 16 29q38 22 92 25q-156 50 -189 153q-11 32 1 44q5 5 24 10q29 6 75 2q-120 73 -153 193q-9 36 8 43q13 5 49 -7q324 -102 571 -315q65 227 150 291q51 113 169 199 q-24 -40 -15 -59q71 60 116 63q18 1 20 -10q3 -13 -15 -34q101 12 119 -17q7 -10 -5 -21q-12 -10 -35 -13q-65 -7 -101 -33q142 -4 255 -120q108 -111 138 -266q120 -25 216 21q-16 -82 -206 -102v-17q108 -31 208 -17q-50 -71 -219 -73q-8 -36 -22 -68q-79 -190 -275 -343 q-200 -153 -445 -209q-267 -62 -507 16q-270 88 -460 339z" />
<glyph unicode="&#xf0a2;" horiz-adv-x="862" d="M0 596h163v-691h297v687h199v253h-194v113q4 49 56 55l141 2v240h-255q-121 -2 -181 -73q-60 -70 -61 -214v-114h-165v-258z" />
<glyph unicode="&#xf0a3;" d="M0 233v473h370q-17 -49 -17 -103q0 -131 92 -223q93 -92 223 -92t223 92t93 223q0 54 -17 103h383v-473q0 -136 -96 -232t-232 -96h-694q-136 0 -232 96t-96 232zM0 818v109q0 78 35 147q33 67 91 112v-274h85v322q30 11 62 17v-339h84v343h665q136 0 232 -96t96 -232 v-109h-450q-94 100 -232 100q-137 0 -231 -100h-437zM480 604q0 77 54 130q53 55 130 55t130 -55q54 -53 54 -130q0 -76 -54 -130q-53 -54 -130 -54t-130 54q-54 54 -54 130zM966 929q0 -16 12 -28t29 -12h118q17 0 29 12t12 28v119q0 17 -12 29t-29 12h-118q-17 0 -29 -12 t-12 -29v-119z" />
<glyph unicode="&#xf0a4;" horiz-adv-x="1498" d="M0 169q-7 130 127 210q132 78 341 78q-64 89 -32 178q-181 0 -274 99q-81 87 -68 215q13 124 106 209q101 91 246 78q139 -12 423 19q-53 -76 -194 -84q125 -117 117 -257q-7 -145 -156 -222q-53 -26 -46 -70q6 -35 46 -74q143 -141 155 -155q65 -84 51 -176 q-21 -142 -130 -225q-115 -86 -301 -87q-190 -1 -295 64q-108 67 -116 200zM156 222q-9 -94 70 -162q76 -65 184 -65q141 0 190 14q109 32 122 143q16 142 -188 239q-132 8 -248 -41q-122 -52 -130 -128zM262 882q30 -104 105 -156q75 -51 161 -26q65 18 92 102 q26 83 -1 187q-27 98 -108 153q-78 52 -147 29q-60 -19 -94 -95q-39 -87 -8 -194zM810 571v109h289v289h109v-289h290v-109h-290v-290h-109v290h-289z" />
<glyph unicode="&#xf0a5;" horiz-adv-x="1220" d="M4 232q-3 74 0 142q10 201 35 250q48 96 226 100q256 7 651 -3q103 -2 151 -12q60 -12 91 -42q31 -31 44 -93q12 -56 15 -165q3 -110 0 -171q-6 -124 -17 -176q-14 -67 -50 -99t-111 -44q-63 -10 -204 -12q-284 -4 -449 0q-159 4 -189 7q-77 8 -113 33q-40 28 -58 94 q-16 61 -22 191zM91 590l1 -79h86v-471h82v473h88v77h-257zM239 1254h76l51 -181l52 182h72l-85 -277v-205h-75v202zM362 108q0 -65 43 -72t99 47v-40h74v404h-75v-308q-27 -33 -45 -37q-17 -3 -17 24v321h-77zM491 864v178q0 44 30 71q27 24 65 25q39 0 66 -24 q30 -26 30 -71v-179q0 -43 -30 -69q-27 -24 -66 -24t-65 23q-30 26 -30 70zM557 870q0 -19 9 -30t21 -11q13 0 21 10q10 12 10 31v171q0 18 -10 29q-8 10 -21 10q-12 0 -21 -10q-9 -11 -9 -29v-171zM642 592l1 -553h76v39q48 -59 94 -40q49 19 49 108v212q0 81 -50 96 q-47 14 -93 -39v177h-77zM718 120v250q25 25 47 16q23 -8 23 -39v-207q0 -29 -23 -36q-23 -8 -47 16zM733 835l2 298h66v-282q0 -24 16 -21t40 33v271h66v-357h-65v36q-51 -48 -88 -42t-37 64zM928 147q0 -53 35 -84q31 -28 76 -29q44 0 75 28q34 30 34 85v33h-74v-39 q0 -17 -11 -28q-10 -9 -26 -9q-15 -1 -26 9q-12 10 -12 28l2 90h146v117q0 51 -34 80q-31 27 -75 27q-44 -1 -75 -27q-35 -29 -35 -80v-201zM999 294v52q0 21 12 33q10 10 26 10q15 1 26 -10q10 -12 10 -33v-52h-74z" />
<glyph unicode="&#xf0a6;" horiz-adv-x="1289" d="M0 497q0 128 90 218t217 90q128 0 218 -90t90 -218q0 -127 -90 -217t-218 -90q-127 0 -217 90t-90 217zM674 497q0 128 90 218t218 90q127 0 217 -90t90 -218q0 -127 -90 -217t-217 -90q-128 0 -218 90t-90 217z" />
<glyph unicode="&#xf0a7;" horiz-adv-x="1486" d="M6 430q6 -210 105 -310q96 -97 274 -87q155 7 267 100l-48 141q-114 -93 -234 -93q-90 0 -144 84q-50 76 -51 185q-1 110 48 186q55 86 151 88q104 2 168 -61q65 -65 99 -211q54 -228 175 -321q112 -86 327 -87q164 -1 257 69q83 63 85 159q1 93 -76 166q-83 79 -221 93 q-60 5 -95 39q-32 30 -34 70q-1 39 29 66q32 29 89 29q117 -1 130 -108l167 22q-17 218 -301 216q-283 -2 -298 -234q-6 -108 74 -173q77 -63 224 -80q65 -7 103 -39q34 -28 34 -64q0 -37 -34 -62q-38 -27 -103 -28q-163 -2 -241 72q-72 69 -123 255q-53 192 -150 275 q-104 89 -289 82q-176 -7 -273 -124t-91 -315z" />
<glyph unicode="&#xf0a8;" horiz-adv-x="1309" d="M0 1096q0 66 47 112q46 47 112 47t112 -47q47 -46 47 -112t-47 -112q-46 -47 -112 -47t-112 47q-47 46 -47 112zM3 -2v861h308v-861h-308zM442 -2v861h305v-93q90 64 187 89q101 25 182 2q88 -25 138 -103q54 -85 54 -226h1v-531h-301v531h1q0 69 -38 101q-32 28 -84 25 q-47 -3 -90 -27q-42 -24 -50 -54v-575h-305z" />
<glyph unicode="&#xf0a9;" horiz-adv-x="1229" d="M0 717q0 74 40 121q37 42 94 52t107 -15q53 -26 76 -80q42 41 101 56q58 16 116 4q132 -27 175 -153q69 56 159 68q88 11 169 -24q87 -35 137 -110q55 -83 55 -198v-533h-633v300h-349l-1 234h-245zM48 1027q0 49 35 84q34 35 84 35q49 0 83 -35q35 -35 35 -84t-35 -84 q-34 -34 -83 -34q-50 0 -84 34q-35 35 -35 84zM316 1053q0 72 49 122q50 49 122 49q70 0 120 -49q50 -50 50 -122q0 -70 -50 -120t-120 -50q-72 0 -122 50q-49 50 -49 120zM687 1029q0 94 66 160q67 66 161 66q93 0 159 -66q67 -66 67 -160t-67 -160q-66 -66 -159 -66 q-94 0 -161 66q-66 66 -66 160z" />
<glyph unicode="&#xf0aa;" horiz-adv-x="1496" d="M0 74v103q0 83 59 142t142 59h7q83 0 142 -59t59 -142v-103h-409zM11 612q0 80 56 136q56 57 136 57t136 -57q57 -56 57 -136t-57 -136q-56 -57 -136 -57t-136 57q-56 56 -56 136zM471 74v115q0 92 66 158q65 65 158 65h8q92 0 158 -65q65 -66 65 -158v-115h-455z M483 673q0 89 63 152q63 62 151 62q89 0 152 -62q63 -63 63 -152t-63 -152q-63 -62 -152 -62q-88 0 -151 62q-63 63 -63 152zM990 73v128q0 103 73 176q72 73 175 73h10q103 0 175 -73q73 -73 73 -176v-128h-506zM1003 739q0 99 70 169t169 70t169 -70q69 -70 69 -169 q0 -98 -69 -168q-70 -70 -169 -70t-169 70t-70 168z" />
<glyph unicode="&#xf0ab;" horiz-adv-x="1501" d="M0 383q11 83 10 80q3 15 8 15t8 -15q-1 5 11 -80q-13 -81 -13 -80q-2 -13 -6 -13t-6 13q0 -1 -12 80zM53 383q12 132 12 128q2 22 8 22t9 -22q-1 12 15 -128q-17 -136 -15 -125q-3 -21 -8 -21q-6 0 -9 21q0 -5 -12 125zM111 383q10 135 12 153q3 25 9 25t9 -25 q2 -11 15 -153q-13 -131 -15 -148q-3 -24 -9 -24t-9 26q-2 16 -12 146zM170 383q9 136 11 157q3 26 10 26q8 0 11 -26q2 -18 13 -157q-13 -151 -13 -152q-3 -25 -11 -25q-7 0 -10 25q-1 8 -11 152zM231 383q11 154 10 149q3 23 10 23q5 0 7 -3q2 -4 4 -19q1 -11 5 -52 q4 -55 8 -98q-11 -145 -12 -155q-3 -25 -11 -25q-10 0 -12 26q0 -3 -9 154zM289 383q3 64 6 153q2 64 3 83q2 26 5 33q2 7 9 7q6 0 8 -6q3 -8 5 -34q1 -16 4 -82q3 -83 7 -154q-4 -41 -8 -102q-3 -42 -4 -54q-3 -26 -12 -26q-10 0 -13 27q-1 11 -10 155zM349 383q2 76 5 189 q2 78 4 101q1 31 4 40q3 7 11 7t11 -7q3 -9 4 -40q1 -19 3 -100q3 -103 6 -190q-3 -47 -7 -102q-3 -44 -4 -54q-2 -17 -4 -22q-2 -4 -8 -4q-8 0 -11 4q-3 5 -5 23q0 -2 -9 155zM410 383q3 84 6 212q2 84 3 108q1 32 5 40q2 5 11 5q8 0 10 -6q4 -8 5 -40q1 -23 3 -109 q3 -119 6 -210q-4 -49 -7 -102q-3 -46 -4 -54q-1 -18 -4 -22t-11 -4q-7 0 -9 4q-3 5 -5 23q-1 12 -3 54q-3 59 -6 101zM472 383l7 331q2 33 6 42q2 6 11 6t11 -6q4 -9 6 -42q0 6 9 -331q-4 -52 -7 -102q-2 -51 -2 -54q-2 -18 -5 -22t-12 -4t-12 4q-4 5 -5 23q-1 9 -3 54 q-2 53 -4 101zM533 383q2 87 4 213q1 86 2 110q2 33 6 41q3 6 14 6q9 0 12 -6q4 -9 5 -42q0 14 9 -322q-4 -50 -7 -102q-2 -47 -3 -54q-2 -18 -5 -22t-13 -4q-9 0 -12 4q-3 5 -5 23q-1 10 -2 54q-3 54 -5 101zM596 383q6 328 5 307q1 33 6 43q3 8 14 8t14 -6q4 -8 5 -40 q1 -18 2 -106q2 -107 4 -206q-4 -53 -6 -102q0 -12 -1 -32v-22q-1 -18 -5 -22q-3 -4 -13 -4t-13 4q-4 5 -5 23q-1 8 -2 54q-2 52 -5 101zM657 383q6 346 8 372q2 37 6 47q3 6 13 6q11 0 14 -7q4 -9 6 -47q1 -27 2 -126q2 -141 4 -245q-5 -53 -6 -102q-1 -12 -1 -32 q-1 -16 -1 -22q-1 -18 -4 -22t-14 -4t-14 4q-4 5 -6 23q0 8 -2 54q-2 53 -5 101zM719 383q6 404 5 397q2 43 8 55q4 10 16 10q13 0 17 -10q4 -13 6 -57q0 -27 1 -138q1 -140 3 -257q-4 -53 -6 -102q-2 -60 -1 -53q-1 -17 -5 -22q-3 -3 -15 -3t-15 4q-5 5 -7 22q-1 11 -2 54 q-2 54 -5 100zM786 217v636q0 15 46 28q45 12 93 12q125 0 216 -90q92 -91 105 -226q25 15 67 15q44 -1 85 -20q103 -49 103 -176q0 -84 -60 -143q-54 -53 -119 -53h-520q-3 0 -9 6q-7 7 -7 11z" />
<glyph unicode="&#xf0ac;" horiz-adv-x="1456" d="M0 919q0 17 128 128t205 161q53 34 108 34q115 0 161 -106q28 -62 54 -261q22 -164 56 -279q42 -141 86 -141q52 0 136 137q77 125 96 213q12 56 -14 97q-28 43 -84 38q3 0 -103 -23q100 339 395 339q135 0 191 -105q41 -76 37 -194q-2 -88 -98 -268q-89 -167 -209 -323 q-280 -366 -519 -366q-87 0 -152 141q-44 94 -97 309q-61 246 -84 309q-50 141 -111 141q-12 0 -63 -35t-52 -35q-6 0 -37 44q-30 42 -30 45z" />
<glyph unicode="&#xf0ad;" horiz-adv-x="1157" d="M8 321q7 -13 28 -13h189q37 0 57 35l212 375l-135 235q-16 36 -67 36l-179 -1q-24 0 -30 -14q-6 -15 7 -41l126 -216l-206 -362q-10 -21 -2 -34zM440 451l436 768q15 36 66 36l180 -1q23 0 29 -14q6 -15 -6 -40l-427 -750l274 -498q10 -20 3 -34q-8 -13 -29 -13h-188 q-38 0 -58 36z" />
<glyph unicode="&#xf0ae;" horiz-adv-x="1498" d="M0 140q21 453 520 567v-57q-167 -56 -248 -182q-66 -104 -66 -240q0 -2 347 -1l3 667l131 10v-764h-687zM719 691v43q354 -17 560 -164q219 -156 219 -427l-683 -6v383l127 -18v-278q352 -5 352 -2q-12 442 -575 469z" />
<glyph unicode="&#xf0af;" horiz-adv-x="1356" d="M0 204v128q92 45 183 61q102 17 179 73q15 11 28 3q13 -7 15 -26q5 -51 -68 -114q-32 -26 -153 -70q-113 -41 -184 -55zM36 856q-3 14 8 22q8 5 34 2q47 -5 58 -5q33 -1 105 5q110 10 148 13q-1 31 -1 69q1 68 13 187q3 39 27 71q25 35 56 35q33 0 41 -59q7 -55 -11 -145 q-10 -60 -9 -154q54 1 108 -2q76 -3 226 -3q1 47 5 149q3 90 4 137q1 58 21 65q21 6 55 -40q19 -25 23 -73q0 -7 2 -104q2 -88 2 -135q91 -3 148 -13l135 -6q37 4 55 -28q29 -53 -40 -74q-87 -26 -259 -6q-20 4 -44 6q-8 -117 -34 -239q-16 -81 -155 -102h-3q-1 -35 2 -201 q103 -4 211 -18q89 -12 134 -95q43 -79 41 -210h-116q-8 68 -1 60q-14 76 -19 85q-19 38 -78 40q-50 2 -171 0q3 -102 11 -185h-128q0 35 2 94q2 67 2 90q-94 1 -168 7q-56 5 -95 -59q-27 -46 -41 -117q-2 -7 -3 -15h-115q16 143 54 210q35 62 105 85q83 28 259 30 q-15 137 -16 190h-9q-54 1 -97 32q-52 37 -79 110q-33 85 -44 204q-90 -2 -151 -13q-115 -13 -175 0q-20 5 -29 28q-8 21 -2 44q3 10 -2 31zM510 768q4 -51 10 -109q4 -36 19 -65q26 -51 79 -60l120 3q42 1 71 38q28 35 28 81q-1 59 -1 120q-83 1 -192 -6q-39 -2 -134 -2z M949 403q0 23 17 38q20 16 56 13q130 -12 334 -108v-121q-217 84 -343 107q-29 6 -47 27q-16 20 -17 44z" />
<glyph unicode="&#xf0b0;" horiz-adv-x="1345" d="M0 -39v241q70 14 182 54q121 44 152 70q72 61 68 113q-2 20 -16 27q-13 7 -27 -4q-77 -56 -177 -73q-91 -16 -182 -61v871q0 23 16 40q17 16 40 16h1233q23 0 39 -16q17 -17 17 -40v-856q-204 95 -332 107q-36 4 -55 -13q-17 -14 -17 -38q1 -24 17 -44q18 -21 46 -26 q125 -23 341 -107v-261q0 -23 -17 -40q-16 -16 -39 -16h-158q3 130 -39 208q-45 83 -133 95q-107 13 -210 18q-3 164 -1 199h2q138 21 155 101q25 121 33 238q23 -3 43 -6q170 -20 258 6q68 21 39 73q-18 32 -54 28l-134 6q-57 10 -147 12q0 47 -2 134q-2 97 -2 104 q-4 48 -22 73q-34 45 -54 39q-21 -7 -22 -64q-1 -47 -5 -137q-4 -101 -5 -147q-148 0 -223 3q-54 2 -107 2q-2 93 10 152q17 90 10 144q-7 58 -41 59q-31 0 -56 -35q-23 -32 -27 -70q-12 -119 -12 -186v-69q-37 -2 -146 -12q-72 -6 -105 -5l-90 3q-11 -8 -8 -22q5 -20 2 -31 q-6 -23 2 -44q8 -22 28 -27q60 -14 174 0q60 11 150 13q10 -119 43 -203q27 -72 79 -109q43 -30 96 -31h9q0 -54 15 -189q-174 -2 -257 -30q-68 -23 -103 -84q-38 -68 -53 -209h-165q-23 0 -40 16q-16 17 -16 40zM334 -95q1 7 3 15q14 70 41 115q38 65 93 60q74 -6 168 -7 q-1 -24 -3 -90q-2 -58 -2 -93h-300zM506 761q94 1 132 3q108 6 191 5q-1 -61 0 -119q1 -45 -27 -80q-29 -37 -71 -38l-118 -3q-53 9 -78 60q-15 28 -19 64q-6 58 -10 108zM750 89q121 2 171 0q58 -2 76 -40q5 -10 19 -85q-6 8 1 -59h-256q-8 82 -11 184z" />
<glyph unicode="&#xf0b1;" horiz-adv-x="1452" d="M16 263q7 10 21 12q15 1 33 -9q346 -193 567 -210q213 -17 568 115q27 10 46 6q17 -5 22 -19q6 -14 -2 -30q-9 -19 -31 -33q-653 -430 -1209 113q-31 30 -15 55zM267 464q-3 239 181 328q95 45 353 67v84q0 43 -24 76q-31 44 -93 44q-76 0 -116 -42q-22 -24 -39 -74 q-4 -11 -12 -19q-9 -8 -18 -7q-116 10 -179 20q-23 4 -22 27q9 132 125 212q110 75 269 75q164 0 259 -67q109 -77 109 -232v-403q0 -57 29 -105q10 -15 24 -31q16 -19 16 -20q15 -20 -1 -40q-17 -14 -70 -59t-74 -63q-13 -11 -27 -11q-14 1 -25 13q-61 63 -94 112 q-115 -132 -287 -132q-128 0 -211 82q-72 72 -73 165zM543 467q25 -68 95 -68q40 0 76 23q37 25 59 67q38 71 29 224q-109 0 -169 -23q-62 -26 -84 -84q-29 -75 -6 -139zM1140 241q-5 12 1 24q7 15 27 25q76 40 162 41q81 1 101 -32q21 -35 -6 -121t-72 -130 q-28 -28 -49 -15q-19 13 -10 45q38 132 37 147q-76 14 -137 -1q-18 -5 -34 0q-14 5 -20 17z" />
<glyph unicode="&#xf0b2;" horiz-adv-x="1377" d="M0 876q0 157 111 268t269 111q101 0 189 -51q59 11 118 11q264 0 449 -185q186 -185 186 -449q0 -48 -8 -96q58 -92 58 -201q0 -157 -111 -268t-268 -111q-104 0 -194 53q-55 -10 -112 -10q-262 0 -447 185q-186 186 -186 448q0 45 7 89q-61 94 -61 206zM301 356 q-3 -39 28 -81q59 -81 163 -123q90 -36 192 -36q151 0 268 87q114 84 114 187q0 122 -108 200q-109 80 -297 94q-82 6 -124 40q-37 30 -32 71q4 41 44 68q44 31 107 31q76 0 129 -37q17 -11 44 -35q30 -27 44 -38q33 -25 70 -24q34 2 59 24q26 23 29 54q3 34 -24 66 q-61 75 -115 106q-92 52 -246 52q-140 0 -238 -79q-104 -83 -104 -208q0 -110 107 -184q98 -68 261 -86q86 -9 136 -46q45 -32 46 -74t-42 -70q-48 -29 -128 -29q-86 0 -131 33q-15 11 -38 35q-27 28 -42 41q-36 31 -76 34q-38 3 -65 -17q-29 -21 -31 -56z" />
<glyph unicode="&#xf0b3;" d="M0 580q0 280 198 477q197 198 477 198t477 -198q198 -197 198 -477t-198 -477q-197 -198 -477 -198t-477 198q-198 197 -198 477zM60 582q0 -181 99 -334q94 -147 254 -223l-295 817q-58 -123 -58 -260zM149 901q149 3 221 15q16 2 20 -13q3 -15 -11 -18q-22 -5 -85 -10 l228 -681l139 415l-100 264q-33 0 -66 6q-18 3 -19 20q0 16 19 15q226 -15 330 -2q17 2 20 -13q3 -14 -16 -18q-30 -5 -77 -6l226 -673l88 287q47 195 -28 296q-76 101 -57 169t125 70q-179 174 -430 174q-165 0 -307 -82q-138 -80 -220 -215zM499 -8q86 -26 177 -26 q106 0 206 36l-197 533zM973 42q145 80 230 222q89 146 89 318q0 169 -86 314q15 -85 -2 -166q-7 -34 -52 -166z" />
<glyph unicode="&#xf0b4;" horiz-adv-x="1362" d="M0 383l2 345q0 299 171 435q116 92 274 92l261 -3q142 0 263 -108q144 -128 144 -336q0 -36 36 -52q38 -16 131 -16q34 0 57 -25q23 -24 23 -58l-10 -347q0 -163 -122 -284q-123 -121 -290 -121h-484q-201 0 -326 125q-130 131 -130 353zM353 334q0 -32 19 -55 q21 -25 57 -25h501q37 0 58 25q19 23 18 55q0 33 -19 56q-21 25 -57 25h-501q-36 0 -57 -25q-20 -23 -19 -56zM356 823q1 -32 20 -55q21 -24 57 -24h257q34 0 54 24q18 23 18 55t-18 54q-20 25 -54 25h-257q-37 0 -58 -25q-19 -22 -19 -54z" />
<glyph unicode="&#xf0b5;" horiz-adv-x="1374" d="M0 163q0 108 76 184q75 75 182 75q108 0 184 -75q75 -76 75 -184q0 -107 -75 -182q-76 -76 -184 -76q-107 0 -182 76q-76 75 -76 182zM125 579v274q61 11 123 11q293 0 499 -206q207 -207 207 -500q0 -53 -8 -106h-266q13 52 13 106q0 183 -128 311q-129 129 -311 129 q-67 0 -129 -19zM125 1014v235q59 6 118 6q231 0 441 -86q202 -83 360 -235q156 -152 242 -349q88 -203 88 -427q0 -53 -5 -106h-259q7 53 7 106q0 176 -70 336q-68 154 -191 273t-282 186q-164 67 -346 67q-52 0 -103 -6z" />
<glyph unicode="&#xf0b6;" horiz-adv-x="1481" d="M0 543q15 14 15 16l-15 8q47 -1 56 8q12 6 -15 12q27 -1 31 5q-15 14 -72 14q46 0 56 12q4 7 -4 14q-9 8 -30 2q8 2 10 9q2 10 3 12h-35q53 13 38 28q36 -7 158 18q133 28 173 27q19 1 100 -5q-52 95 -63 119q-8 13 -50 114q-33 19 -74 113q-2 17 -15 38q56 -95 99 -148 q3 -3 24 -57q26 -66 73 -141q12 -20 25 -39q17 -2 28 -2q-76 137 -104 202q-32 79 -66 126l-21 21q-8 16 -22 50q-13 33 -24 54q33 -19 42 -10q4 24 -16 38q19 -8 21 -7v17q22 -42 33 -45q12 -7 4 19q12 -24 18 -25q6 20 -21 70q22 -42 38 -44q9 -1 10 10q3 13 -13 27 q7 -6 13 -4q10 3 12 3l-16 31q35 -42 42 -20q11 -35 91 -132q86 -104 104 -139q9 -17 49 -105q51 92 65 115q8 14 72 103q-1 38 56 123q12 10 24 32q-50 -98 -74 -163q-1 -4 -34 -50q-42 -57 -82 -136q-9 -21 -19 -41q8 -19 12 -26q77 137 117 194q50 70 71 124l8 29 q9 16 30 45t34 49q1 -38 14 -42q22 11 23 34q4 -20 6 -21l14 10q-24 -41 -21 -53q0 -13 18 7q-14 -23 -11 -29q19 6 48 55q-24 -40 -18 -55q4 -8 14 -4q13 5 16 26q0 -8 4 -13q8 -7 9 -9l17 30q-16 -51 5 -46q-23 -27 -63 -147q-42 -129 -63 -162q0 -1 -80 -123q71 -1 175 9 q162 -13 235 -33q63 -18 87 -19q-27 -6 -7 -25q-6 5 -22 3q-18 -1 -25 -7q3 0 9 1h7q7 1 9 -3q-25 -2 -21 -8l-1 -2v-4q0 -5 11 -10q-39 -4 -25 -12q-19 -9 39 -11q-56 -10 -27 -11q29 2 70 -4q45 -8 65 -8q-57 -3 -65 -10l34 -9q-68 2 -75 -9q-17 -33 -140 -42 q-216 -29 -277 -24q-16 0 -73 -1q30 -59 84 -141q65 -148 80 -223q14 -63 25 -84q-19 20 -25 -6q1 7 -7 21q-10 15 -19 19q2 -4 5 -8q4 -6 4 -7q4 -5 1 -9q-15 22 -17 15q0 -1 -2 -1t-3 -1q-5 -4 -3 -14q-23 32 -25 16q-16 13 10 -40q-35 45 -21 19q14 -25 28 -64 q13 -43 23 -61q-30 48 -40 52l9 -33q-30 60 -43 61q-37 0 -103 104q-127 178 -151 233q-4 8 -13 23q-27 -47 -60 -120q-92 -133 -146 -186q-45 -45 -58 -66q7 27 -18 18q6 3 13 18q8 15 6 26q-2 -4 -4 -9q-2 -6 -3 -7q-3 -7 -7 -6q10 24 3 23l-1 1q-2 2 -3 2q-5 2 -15 -5 q17 36 2 29q2 21 -28 -28q19 52 4 27q-14 -25 -40 -57q-28 -35 -39 -54q26 52 24 62l-24 -25q35 57 29 70q-20 31 33 141q84 202 118 253q2 4 7 11q-87 -1 -111 0q-16 0 -124 10q-33 -19 -135 -13q-15 6 -40 6q109 5 177 18q4 1 62 -6q70 -8 158 -2l21 2l15 25 q-138 -1 -202 4q-85 9 -142 0l-28 -8q-19 0 -54 4q-37 4 -60 4q32 20 29 34q-21 13 -41 2zM454 388q28 16 68 76h-31q-25 -42 -32 -56q-11 -19 -5 -20zM499 479q16 1 31 2l13 23l-28 -1zM690 360q27 -52 35 -66q13 -22 16 -17q1 37 -34 107l-1 2zM865 513q5 -12 12 -23 q108 -2 109 -2q37 1 34 5q-33 20 -111 22z" />
<glyph unicode="&#xf0c0;" horiz-adv-x="674" d="M0 575l674 -674v1349z" />
<glyph unicode="&#xf0c1;" horiz-adv-x="672" d="M0 -95v1344l672 -672z" />
<glyph unicode="&#xf0c2;" horiz-adv-x="816" d="M0 -94v1350h323v-1350h-323zM493 -94v1350h323v-1350h-323z" />
<glyph unicode="&#xf0c3;" horiz-adv-x="1204" d="M0 -99v1355l527 -526v526l677 -677l-677 -678v527z" />
<glyph unicode="&#xf0c4;" horiz-adv-x="1203" d="M0 578l677 677v-526l526 526v-1354l-526 526v-526z" />
<glyph unicode="&#xf0c5;" horiz-adv-x="965" d="M0 -93v1349l641 -641v641h324v-1355h-324v648z" />
<glyph unicode="&#xf0c6;" horiz-adv-x="964" d="M0 -99v1355h323v-641l641 641v-1349l-641 641v-647h-323z" />
<glyph unicode="&#xf0c7;" horiz-adv-x="1488" d="M0 -99v1348l524 -524v524l641 -641v645h323v-1352h-323v641l-641 -641v524z" />
<glyph unicode="&#xf0c8;" horiz-adv-x="1482" d="M0 -99v1349h322v-638l638 638v-522l522 522v-1343l-522 522v-522l-638 638v-644h-322z" />
<glyph unicode="&#xf0c9;" horiz-adv-x="1504" d="M0 498l752 752l752 -752h-1504zM13 -14v352h1484v-352h-1484z" />
<glyph unicode="&#xf0d0;" horiz-adv-x="1285" d="M0 548q0 200 114 364q110 161 291 233v-182q-113 -62 -179 -172q-69 -113 -69 -246q0 -198 142 -338q141 -140 341 -140t342 140q141 140 141 338q0 132 -68 245q-66 109 -178 172v184q182 -71 294 -232q114 -165 114 -366q0 -267 -188 -455t-454 -188q-267 0 -455 188 t-188 455zM492 346v909h305v-909h-305z" />
<glyph unicode="&#xf0d1;" horiz-adv-x="1663" d="M0 208v747h360v-747h-360zM434 203v750l411 302v-1350l-408 298h-3zM941 313l248 248l-248 248l113 113l248 -248l248 248l113 -113l-248 -248l248 -248l-113 -113l-248 248l-248 -248z" />
<glyph unicode="&#xf0d2;" horiz-adv-x="846" d="M0 208v747h360v-747h-360zM434 203v750l412 302v-1350l-408 298h-4z" />
<glyph unicode="&#xf0d3;" horiz-adv-x="1249" d="M0 208v747h360v-747h-360zM434 203v750l411 302v-1350l-408 298h-3zM952 301q155 112 155 304q0 175 -134 288l111 110q165 -160 165 -395q0 -255 -189 -416z" />
<glyph unicode="&#xf0d4;" horiz-adv-x="1430" d="M-95 303v747h360v-747h-360zM339 298v750l411 302v-1350l-408 298h-3zM856 396q156 112 156 304q0 175 -134 288l110 110q165 -160 165 -395q0 -255 -188 -416zM1075 177q222 211 222 525q0 296 -201 504l92 92q242 -251 242 -608q0 -365 -251 -617z" />
<glyph unicode="&#xf0d5;" horiz-adv-x="1298" d="M0 -94v1350h1298v-1350h-1298z" />
<glyph unicode="&#xf100;" horiz-adv-x="1433" d="M0 716l252 251q-15 19 -9 46q4 26 25 48q21 21 48 26q27 4 46 -9l124 123l439 54l-370 -370l231 -231l7 7q10 10 23 10q14 1 23 -8l573 -572q21 -22 -2 -46l-130 -129q-10 -10 -23 -11q-14 -1 -23 8l-573 573q-21 22 3 46l11 11l-231 231l-252 -251z" />
<glyph unicode="&#xf101;" horiz-adv-x="1666" d="M0 716l252 251q-15 19 -10 46q5 26 26 48q21 21 48 26q27 4 46 -9l123 123l439 54l-369 -370l230 -231l7 7q10 10 24 10q13 1 22 -8l573 -572q21 -22 -2 -46l-130 -129q-10 -10 -23 -11t-23 8l-572 573q-22 22 2 46l11 11l-230 231l-252 -251zM362 172q0 35 24 58 l226 226l255 -254l-226 -226q-24 -24 -58 -24t-58 24l-139 139q-24 24 -24 57zM506 172q0 -35 26 -61q25 -25 61 -25t61 25q25 26 25 61q0 36 -25 61q-25 26 -61 26t-61 -26q-26 -25 -26 -61zM865 709l32 32q-35 104 -11 210q24 109 104 189t189 105q107 23 210 -11 l-243 -243l30 -233l238 -36l230 230q22 -96 -5 -191q-26 -98 -99 -171q-77 -76 -181 -102q-102 -25 -202 4l-38 -38z" />
<glyph unicode="&#xf102;" horiz-adv-x="1360" d="M10 759q-25 111 12 219l253 -254l243 32l37 248l-240 241q101 22 201 -5q102 -29 178 -105q79 -79 106 -188q27 -107 -4 -211l540 -540q24 -25 24 -60t-24 -61l-146 -145q-25 -25 -60 -25t-61 25l-533 534q-108 -37 -219 -11q-115 25 -198 108q-83 84 -109 198zM1040 146 q0 -38 26 -64t64 -26q37 0 63 26q27 26 27 64t-27 64q-26 27 -63 27q-38 0 -64 -27q-26 -26 -26 -64z" />
<glyph unicode="&#xf103;" horiz-adv-x="752" d="M0 823v297q0 56 40 96q39 39 96 39h481q56 0 96 -39q39 -40 39 -96v-297q0 -56 -39 -96q-40 -39 -96 -39h-73v-670l-192 -113l-119 30v753h-97q-57 0 -96 39q-40 40 -40 96zM203 999h364v161h-364v-161zM286 -14l72 -18v711h-72v-693z" />
<glyph unicode="&#xf104;" horiz-adv-x="1567" d="M0 18l672 618q-27 77 -27 158q0 191 134 327q136 134 326 134q192 0 327 -134q135 -136 135 -327t-135 -326t-327 -135q-104 0 -197 44l-40 -40h-148v-148l-150 -2v-134h-134v-148h-346zM925 965q0 -65 46 -111t112 -46q65 0 111 46t46 111t-46 111q-46 47 -111 47 q-66 0 -112 -47q-46 -46 -46 -111z" />
<glyph unicode="&#xf105;" d="M0 580q0 280 198 478q197 197 477 197t478 -197q197 -198 197 -478t-197 -477q-198 -198 -478 -198t-477 198q-198 197 -198 477zM124 584q0 -230 163 -392q162 -163 392 -163q229 0 391 163q162 162 162 392q0 229 -162 391t-391 162q-230 0 -392 -162 q-163 -162 -163 -391zM291 592q0 87 63 149q62 63 150 63q116 0 178 -98l-91 -55q-30 59 -89 59q-43 0 -73 -35t-30 -86q0 -50 30 -86q30 -35 73 -35q62 0 91 64v-6l90 -48q-62 -99 -179 -99q-88 0 -150 63q-63 61 -63 150zM678 592q0 87 62 149q62 63 150 63q116 0 179 -98 l-92 -55q-30 59 -89 59q-42 0 -72 -35q-31 -35 -31 -86q0 -50 31 -86q30 -35 72 -35q62 0 91 64v-6l90 -48q-63 -99 -179 -99q-88 0 -150 63q-62 61 -62 150z" />
<glyph unicode="&#xf106;" horiz-adv-x="1443" d="M0 -95v278h822v-278h-822zM0 263v278h1308v-278h-1308zM0 619v278h1443v-278h-1443zM0 977v278h1191v-278h-1191z" />
<glyph unicode="&#xf107;" horiz-adv-x="1443" d="M0 619v278h1443v-278h-1443zM134 263v278h1309v-278h-1309zM251 977v278h1192v-278h-1192zM621 -95v278h822v-278h-822z" />
<glyph unicode="&#xf108;" horiz-adv-x="1581" d="M0 619v278h1581v-278h-1581zM134 263v278h1336v-278h-1336zM245 977v278h1110v-278h-1110zM385 -95v278h884v-278h-884z" />
<glyph unicode="&#xf109;" horiz-adv-x="1426" d="M0 -95v278h621v-278h-621zM0 263v278h1426v-278h-1426zM0 619v278h1426v-278h-1426zM0 977v278h1426v-278h-1426z" />
<glyph unicode="&#xf110;" horiz-adv-x="1420" d="M0 972v333l207 -83l207 -84l-207 -83zM13 -95v274h1407v-274h-1407zM15 257v275h1405v-275h-1405zM15 610v275h1405v-275h-1405zM491 964v274h929v-274h-929z" />
<glyph unicode="&#xf111;" horiz-adv-x="1439" d="M0 415v337l210 -84l209 -84l-209 -85zM13 977v278h1426v-278h-1426zM497 -95v278h942v-278h-942zM497 263v278h942v-278h-942zM497 619v278h942v-278h-942z" />
<glyph unicode="&#xf112;" horiz-adv-x="1422" d="M0 1138l207 84l207 83v-333l-207 83zM14 -95v274h1408v-274h-1408zM23 257v275h1399v-275h-1399zM23 610v275h1399v-275h-1399zM485 964v274h931v-274h-931z" />
<glyph unicode="&#xf113;" horiz-adv-x="1440" d="M0 584l210 84l209 84v-337l-209 84zM14 977v278h1426v-278h-1426zM498 -95v278h942v-278h-942zM498 263v278h942v-278h-942zM498 619v278h942v-278h-942z" />
<glyph unicode="&#xf114;" horiz-adv-x="1531" d="M0 -95v356h320v-356h-320zM389 -95v580h320v-580h-320zM798 -95v904h321v-904h-321zM1211 -95v1350h320v-1350h-320z" />
<glyph unicode="&#xf115;" d="M0 537q0 262 185 446q185 185 447 185v-656h631q-10 -253 -193 -430t-438 -177q-262 0 -447 185t-185 447zM0 537q0 262 185 446q185 185 447 185v-656h631q-10 -253 -193 -430t-438 -177q-262 0 -447 185t-185 447zM719 599v656q261 0 446 -185t185 -446v-25h-631z" />
<glyph unicode="&#xf116;" horiz-adv-x="1502" d="M0 -95v906h321v-906h-321zM412 -95v1350h321v-1350h-321zM793 -95v581h320v-581h-320zM1181 -95v357h321v-357h-321z" />
<glyph unicode="&#xf117;" horiz-adv-x="1449" d="M0 18l129 154h62v-158h32v-55h-32v-48h-62v48h-129v59zM2 619q4 31 22 58q18 29 70 66q31 23 40 35q8 13 8 23q0 12 -8 20t-22 8t-22 -8q-8 -9 -12 -30l-71 5q4 31 16 47q11 18 31 26q20 9 56 9q38 0 59 -8t33 -27q12 -17 12 -39q0 -23 -14 -45q-14 -21 -51 -47l-28 -20 q-7 -7 -17 -16h112v-57h-214zM5 332l71 10q5 -22 13 -30q9 -8 23 -8t23 10q10 11 10 28q0 18 -9 28q-9 9 -25 9q-8 0 -23 -4l4 51q5 -1 9 -1q14 0 23 9t9 21t-7 19t-19 7q-13 0 -21 -8q-7 -8 -10 -26l-67 12q8 32 32 49t67 17q51 0 73 -18q22 -20 22 -47q0 -18 -9 -30 q-9 -14 -27 -24q15 -4 22 -9q13 -8 20 -21q7 -12 7 -30q0 -22 -11 -43q-12 -20 -34 -31t-58 -11q-35 0 -55 8t-33 24t-20 39zM22 1105v57q36 12 56 29q20 16 31 40h59v-259h-72v169q-17 -13 -34 -21q-15 -8 -40 -15zM333 -95v278h1116v-278h-1116zM333 263v278h1116v-278 h-1116zM333 619v278h1116v-278h-1116zM333 977v278h1116v-278h-1116z" />
<glyph unicode="&#xf118;" horiz-adv-x="1430" d="M0 -95v278h328v-278h-328zM0 263v278h328v-278h-328zM0 619v278h328v-278h-328zM0 977v278h328v-278h-328zM416 -95v278h1014v-278h-1014zM416 263v278h1014v-278h-1014zM416 619v278h1014v-278h-1014zM416 977v278h1014v-278h-1014z" />
<glyph unicode="&#xf119;" horiz-adv-x="2109" d="M0 -95h159l62 166h292l61 -166h156l-282 727h-156zM54 706l159 274l159 275l159 -275l158 -274h-635zM270 194l101 269l98 -269h-199zM786 -95h288l114 300h530l109 -300h282l-512 1320h-282zM1274 428l184 489l177 -489h-361z" />
<glyph unicode="&#xf120;" horiz-adv-x="2138" d="M0 -95l520 1337h286l536 -1337h-291l-117 304h-536l-111 -304h-287zM480 435h367l-186 495zM1398 -95l287 737h158l295 -737h-160l-64 168h-296l-62 -168h-158zM1451 1255h644l-162 -279l-161 -279l-160 279zM1664 198h202l-103 273z" />
<glyph unicode="&#xf121;" horiz-adv-x="894" d="M0 43v1074q0 57 41 97q40 41 97 41h618q57 0 97 -41q41 -40 41 -97v-1074q0 -57 -41 -97q-40 -41 -97 -41h-618q-57 0 -97 41q-41 40 -41 97zM96 160h708v986h-708v-986zM114 40q0 -15 14 -28q13 -11 32 -11h131q19 0 33 11q13 13 13 28q0 17 -13 28q-14 12 -33 12h-131 q-19 0 -32 -12q-14 -11 -14 -28zM374 40q0 -28 20 -49q21 -20 49 -20t48 20q21 21 21 49t-21 48q-20 21 -48 21t-49 -21q-20 -20 -20 -48zM554 40q0 -15 14 -28q13 -11 32 -11h132q19 0 32 11q14 13 14 28q0 17 -14 28q-13 12 -32 12h-132q-19 0 -32 -12q-14 -11 -14 -28z " />
<glyph unicode="&#xf122;" horiz-adv-x="1083" d="M0 -48v1255q0 20 13 34q15 14 34 14h989q19 0 34 -14q13 -14 13 -34v-1255q0 -19 -13 -34q-15 -13 -34 -13h-989q-19 0 -34 13q-13 15 -13 34zM78 107h935v1067h-935v-1067zM493 10q0 -20 14 -33q14 -14 33 -14t33 14q13 13 13 33q0 18 -13 33q-14 13 -33 13t-33 -13 q-14 -15 -14 -33z" />
<glyph unicode="&#xf123;" horiz-adv-x="1526" d="M0 131v1124h1526v-1124h-1526zM71 282h1393v903h-1393v-903zM430 -95l171 176h372l158 -176h-701zM1353 214q1 -16 13 -27q10 -11 26 -11q16 1 26 13q12 11 11 26q0 16 -12 26q-11 12 -26 11q-16 0 -27 -12q-11 -11 -11 -26z" />
<glyph unicode="&#xf124;" d="M0 441l675 407l675 407l-407 -675l-407 -675l-3 533z" />
<glyph unicode="&#xf125;" horiz-adv-x="944" d="M0 122q30 8 48 55q17 41 17 87v12h806v-9q0 -123 73 -145h-944zM65 338v302q0 167 98 282q101 119 258 128l-29 205h186l-38 -207q149 -18 241 -135q90 -114 90 -273v-302h-806zM337 50q0 12 2 25h286q2 -13 2 -25q0 -60 -43 -103q-42 -42 -102 -42t-103 42 q-42 43 -42 103z" />
<glyph unicode="&#xf126;" horiz-adv-x="1568" d="M0 591l784 664l784 -664l-138 -136l-646 525l-646 -525zM214 -95v544l568 447l578 -456v-535h-1146z" />
<glyph unicode="&#xf127;" horiz-adv-x="1568" d="M0 591l784 664l784 -664l-138 -136l-646 525l-646 -525zM214 -95v544l568 447l578 -456v-535h-362v496h-402v-496h-382z" />
<glyph unicode="&#xf128;" d="M0 207q0 64 45 108l309 310q44 43 106 44q61 1 107 -41l-369 -368q-17 -18 -17 -43t17 -43l76 -76q18 -18 43 -18t44 18l367 368q38 -46 36 -105t-44 -102l-310 -309q-44 -45 -108 -45q-63 0 -108 45l-149 149q-45 45 -45 108zM433 412q0 34 23 57l346 346q23 23 57 23 t57 -23q25 -24 25 -58q0 -33 -25 -57l-344 -345q-25 -25 -58 -25q-34 0 -58 25q-23 23 -23 57zM586 795q-1 -61 41 -107l368 369q18 17 43 17t43 -17l76 -76q18 -18 18 -43t-18 -44l-368 -367q46 -38 105 -36t102 44l309 310q45 44 45 108q0 63 -45 108l-149 149 q-45 45 -108 45q-64 0 -108 -45l-310 -309q-43 -44 -44 -106z" />
<glyph unicode="&#xf129;" horiz-adv-x="1079" d="M0 -95v770h80v166q0 171 121 293q121 121 293 121h128q171 0 292 -121q121 -122 121 -293v-166h44v-770h-1079zM251 675h620v148q0 117 -72 196q-75 82 -189 82h-98q-114 0 -188 -82q-73 -79 -73 -196v-148zM431 428q0 -75 65 -112l-52 -258h232l-53 260q64 36 64 110 q0 52 -38 90t-90 38q-54 0 -91 -38t-37 -90z" />
<glyph unicode="&#xf130;" horiz-adv-x="1096" d="M0 -95v782h885v352q0 119 -74 200q-75 82 -191 82h-100q-116 0 -191 -82q-74 -81 -74 -200v-124h-174v143q0 174 123 298q123 122 297 122h131q174 0 297 -122q122 -124 122 -298v-371h45v-782h-1096zM438 436q0 -76 66 -114l-53 -261h235l-53 263q64 37 64 112 q0 53 -38 92q-38 38 -91 38q-55 0 -93 -38q-37 -39 -37 -92z" />
<glyph unicode="&#xf131;" horiz-adv-x="775" d="M0 862q0 163 113 278q114 115 274 115q161 0 275 -115q113 -115 113 -278q0 -237 -388 -957q-13 0 -193 392q-194 421 -194 565zM131 871q0 -114 79 -194q78 -80 188 -80t188 80t78 194q0 113 -78 193t-188 80t-188 -80q-79 -80 -79 -193z" />
<glyph unicode="&#xf132;" horiz-adv-x="1347" d="M0 -95l151 415l264 -264zM195 380l623 623l278 -277l-624 -623zM871 1056l169 168q30 31 74 31q42 0 73 -31l130 -130q30 -30 30 -73t-30 -74l-169 -169z" />
<glyph unicode="&#xf133;" d="M0 -95l203 258l202 259l56 -56l56 -56l-259 -202zM252 657l299 57l274 274l25 267l500 -500l-267 -25l-274 -274l-56 -299z" />
<glyph unicode="&#xf134;" d="M0 580q0 280 197 477q198 198 478 198t477 -198q198 -197 198 -477t-198 -478q-197 -197 -477 -197t-478 197q-197 198 -197 478z" />
<glyph unicode="&#xf135;" d="M0 580q0 280 197 477q198 198 478 198t477 -198q198 -197 198 -477t-198 -478q-197 -197 -477 -197q-233 0 -416 143l-4 -4l-90 90q-165 194 -165 446zM137 580q0 -197 128 -348l757 758q-150 128 -347 128q-223 0 -380 -158q-158 -157 -158 -380zM357 146 q141 -104 318 -104q223 0 380 158q158 157 158 380q0 176 -104 318z" />
<glyph unicode="&#xf136;" horiz-adv-x="1631" d="M0 -95l407 675l409 675l407 -675l408 -675h-815h-816z" />
<glyph unicode="&#xf137;" horiz-adv-x="1609" d="M15 -35q-36 60 15 146l196 324q129 213 248 410l196 325q51 85 124 85t124 -85l196 -325q119 -197 248 -410l196 -324q51 -86 15 -146q-37 -60 -140 -60h-1279q-103 0 -139 60z" />
<glyph unicode="&#xf138;" horiz-adv-x="1558" d="M0 580l195 337l194 338h780l195 -338l194 -337l-194 -338l-195 -337h-780l-194 337z" />
<glyph unicode="&#xf139;" d="M0 -95v1350h1350v-1350h-1350z" />
<glyph unicode="&#xf140;" d="M0 125v910q0 91 64 156q65 64 156 64h910q91 0 156 -64q64 -65 64 -156v-910q0 -91 -64 -156q-65 -64 -156 -64h-910q-91 0 -156 64q-64 65 -64 156z" />
<glyph unicode="&#xf141;" horiz-adv-x="1496" d="M0 -95l457 1350h1039l-458 -1350h-1038z" />
<glyph unicode="&#xf142;" d="M0 582h388v-677h547v677h415l-675 675z" />
<glyph unicode="&#xf143;" d="M0 580l675 -675l675 675h-388v677h-547v-677h-415z" />
<glyph unicode="&#xf144;" horiz-adv-x="1352" d="M0 320h677v-415l675 675l-675 675v-388h-677v-547z" />
<glyph unicode="&#xf145;" d="M0 385h415v464h-415l675 676l675 -676h-388v-464h388l-675 -675z" />
<glyph unicode="&#xf146;" horiz-adv-x="1292" d="M0 622q0 268 189 457t457 189t457 -189t189 -457q0 -219 -134 -393q-131 -171 -337 -228l-168 -303l-166 298q-212 54 -348 226q-139 176 -139 400z" />
<glyph unicode="&#xf147;" horiz-adv-x="1379" d="M42 811q96 263 349 381q167 77 349 60q177 -18 323 -120q61 -32 114 -74l181 112l21 -598l-529 281l162 101q-132 84 -289 84q-112 0 -212 -60q-97 -58 -159 -157q-63 -101 -73 -219q-11 -127 43 -247q81 -183 305 -266q232 -85 432 12q161 78 245 235 q-98 -252 -344 -366q-253 -118 -515 -22q-262 95 -380 348t-23 515z" />
<glyph unicode="&#xf148;" horiz-adv-x="1359" d="M0 512l129 34l29 130l72 -112l132 12l-84 -103l52 -122l-123 48l-100 -88l7 133zM75 925l265 265l1019 -1020l-265 -265zM162 1413l127 20l42 122l58 -115l128 -2l-91 -91l38 -123l-114 59l-105 -74l20 127zM182 930l163 -163l163 163l-163 163zM642 1175l152 88l-6 175 l129 -118l165 61l-72 -160l109 -138l-175 19l-97 -146l-36 172z" />
<glyph unicode="&#xf149;" horiz-adv-x="818" d="M0 554v293h133v-258q0 -100 71 -170q70 -71 170 -71h84q99 0 170 71q70 70 70 170v258h120v-293q0 -138 -92 -236q-97 -104 -248 -104h-138q-138 0 -242 111q-98 105 -98 229zM0 554v293h133v-258q0 -100 71 -170q70 -71 170 -71h84q99 0 170 71q70 70 70 170v258h120 v-293q0 -138 -92 -236q-97 -104 -248 -104h-138q-138 0 -242 111q-98 105 -98 229zM121 4q184 27 212 170h172q30 -138 220 -170v-99h-604v99zM217 607v467q0 75 53 128t128 53h42q75 0 128 -53t53 -128v-467q0 -75 -53 -127q-53 -53 -128 -53h-42q-75 0 -128 53 q-53 52 -53 127z" />
<glyph unicode="&#xf150;" horiz-adv-x="1496" d="M0 366q0 154 108 262q109 109 262 109q106 0 195 -56l223 222q-20 47 -20 98q0 105 74 180q75 74 180 74t180 -74q74 -75 74 -180q0 -106 -74 -180q-75 -75 -180 -75q-56 0 -106 24l-223 -223q47 -84 47 -181q0 -18 -2 -37l274 -38q25 42 65 72q84 63 188 48 q104 -14 168 -98q63 -85 48 -189q-14 -104 -98 -168q-85 -63 -189 -48q-104 14 -167 99q-35 45 -46 101l-310 44q-51 -72 -129 -113q-80 -43 -172 -43q-153 0 -262 109q-108 108 -108 261z" />
<glyph unicode="&#xf151;" horiz-adv-x="2431" d="M0 857l1215 398l1216 -398l-641 -210v182q-567 255 -1150 0v-181zM745 233v506q483 242 952 0v-506q-414 242 -952 0zM1799 32q0 53 38 91q37 37 90 37t90 -37q37 -38 37 -91q0 -52 -37 -90q-37 -37 -90 -37t-90 37q-38 38 -38 90zM1863 229v361h128v-361h-128z" />
<glyph unicode="&#xf152;" d="M0 638q11 128 68 242q56 112 148 196q92 85 207 131q120 48 251 48q130 0 250 -48q116 -46 208 -131q91 -84 147 -196q57 -114 68 -242h-194q-10 88 -51 167q-41 76 -105 134q-65 58 -145 90q-84 32 -174 32q-91 0 -174 -32q-81 -32 -146 -90q-64 -58 -104 -134 q-42 -79 -52 -167h-202zM1 511h203q12 -77 48 -147q34 -67 89 -121q54 -54 122 -88q70 -36 147 -46v-204q-119 11 -226 62q-105 50 -187 132q-83 82 -133 186q-52 108 -63 226zM503 368v409h37v-315q23 28 51 42t62 14q60 0 103 -44q43 -43 43 -106q0 -61 -43 -104 q-43 -44 -104 -44q-28 0 -54 11q-27 10 -48 29q-22 20 -34 47q-13 28 -13 61zM540 370q0 -49 33 -82q32 -32 79 -32q31 0 56 14q26 15 41 42q16 27 16 57t-16 58q-15 27 -41 42t-55 15q-30 0 -57 -15t-41 -41q-15 -26 -15 -58zM811 373v409h37v-315q22 28 51 42q28 14 62 14 q60 0 103 -44q42 -44 42 -106q0 -61 -43 -104q-43 -44 -103 -44q-28 0 -55 11q-26 10 -47 29q-22 20 -34 47q-13 28 -13 61zM848 375q0 -49 32 -82q33 -33 80 -33q30 0 56 15t41 42t15 57t-15 57q-15 28 -41 43t-55 15q-30 0 -57 -15t-41 -41q-15 -26 -15 -58zM1083 516h38 l95 -207l95 207h39l-133 -284z" />
<glyph unicode="&#xf153;" horiz-adv-x="1597" d="M0 500q0 51 23 84q25 35 65 34q13 0 553 -385l215 76l-8 -404q-686 378 -737 407q-54 32 -84 86q-26 48 -27 102zM104 703l535 -380l3 395l-537 283zM147 1071l529 -287l774 246l-637 225zM701 319q755 278 806 307q54 31 73 89q17 50 4 107q-13 54 -46 88q-35 35 -75 29 q-67 -9 -762 -222v-398zM922 -67l5 399l533 226l-3 -102z" />
<glyph unicode="&#xf154;" horiz-adv-x="1590" d="M0 334v180h132v104h-132v181h132v11q0 184 135 314q136 131 356 131q54 0 106 -7t113 -21l-19 -206q-47 14 -99 23q-51 8 -101 8q-106 0 -167 -72q-61 -73 -61 -168v-13h386v-181h-386v-104h386v-180h-386v-8q0 -88 61 -153t169 -65q52 0 102 7q50 8 96 23l19 -205 q-51 -13 -106 -21q-55 -7 -111 -7q-221 0 -357 124t-136 297v8h-132zM1104 -60l3 1281l483 -648z" />
</font>
</defs>
</svg>
